<?xml version="1.0" encoding="utf-8"?>
<!-- Generator: Adobe Illustrator 27.5.0, SVG Export Plug-In . SVG Version: 6.00 Build 0)  -->
<svg version="1.1" xmlns="http://www.w3.org/2000/svg" xmlns:xlink="http://www.w3.org/1999/xlink" x="0px" y="0px"
	 viewBox="0 0 750 500" style="enable-background:new 0 0 750 500;" xml:space="preserve">
<g id="Background_Complete">
	<g>
		<g>
			<g>
				<polygon style="fill:#F5F5F5;" points="255.458,275.21 92.482,275.21 104.528,159.114 268.888,159.114 				"/>
			</g>
		</g>
		<g>
			<g>
				<g>
					<path style="fill:#E0E0E0;" d="M110.396,255.726c-0.143-0.015,1.542-17.474,3.762-38.991
						c2.221-21.524,4.137-38.956,4.281-38.941c0.143,0.015-1.541,17.47-3.763,38.994
						C112.456,238.305,110.539,255.74,110.396,255.726z"/>
				</g>
			</g>
			<g>
				<g>
					<path style="fill:#E0E0E0;" d="M140.071,181.677c0,0.144-3.663,0.26-8.181,0.26c-4.519,0-8.182-0.117-8.182-0.26
						c0-0.144,3.662-0.26,8.182-0.26C136.408,181.417,140.071,181.533,140.071,181.677z"/>
				</g>
			</g>
			<g>
				<g>
					<path style="fill:#E0E0E0;" d="M209.683,181.677c0,0.144-14.591,0.26-32.585,0.26c-18.001,0-32.589-0.117-32.589-0.26
						c0-0.144,14.588-0.26,32.589-0.26C195.092,181.417,209.683,181.533,209.683,181.677z"/>
				</g>
			</g>
			<g>
				<g>
					<path style="fill:#E0E0E0;" d="M138.143,222.934c0,0.144-3.663,0.26-8.181,0.26c-4.519,0-8.182-0.117-8.182-0.26
						c0-0.144,3.662-0.26,8.182-0.26C134.48,222.674,138.143,222.791,138.143,222.934z"/>
				</g>
			</g>
			<g>
				<g>
					<path style="fill:#E0E0E0;" d="M207.754,222.934c0,0.144-14.591,0.26-32.585,0.26c-18.001,0-32.589-0.117-32.589-0.26
						c0-0.144,14.588-0.26,32.589-0.26C193.163,222.674,207.754,222.791,207.754,222.934z"/>
				</g>
			</g>
			<g>
				<g>
					<path style="fill:#E0E0E0;" d="M185.554,241.953c0,0.144-14.591,0.26-32.585,0.26c-18.001,0-32.589-0.117-32.589-0.26
						c0-0.144,14.588-0.26,32.589-0.26C170.963,241.693,185.554,241.809,185.554,241.953z"/>
				</g>
			</g>
			<g>
				<g>
					<path style="fill:#E0E0E0;" d="M147.282,193.325c0,0.144-5.153,0.26-11.509,0.26c-6.358,0-11.51-0.117-11.51-0.26
						c0-0.144,5.152-0.26,11.51-0.26C142.129,193.065,147.282,193.181,147.282,193.325z"/>
				</g>
			</g>
			<g>
				<g>
					<path style="fill:#E0E0E0;" d="M146.696,210.402c0,0.144-5.153,0.26-11.509,0.26c-6.358,0-11.51-0.117-11.51-0.26
						c0-0.144,5.152-0.26,11.51-0.26C141.542,210.141,146.696,210.258,146.696,210.402z"/>
				</g>
			</g>
			<g>
				<g>
					<path style="fill:#E0E0E0;" d="M166.156,234.807c0,0.144-5.153,0.26-11.509,0.26c-6.358,0-11.51-0.117-11.51-0.26
						c0-0.144,5.152-0.26,11.51-0.26C161.003,234.547,166.156,234.664,166.156,234.807z"/>
				</g>
			</g>
			<g>
				<g>
					<path style="fill:#E0E0E0;" d="M231.022,193.325c0,0.144-13.166,0.26-29.402,0.26c-16.242,0-29.405-0.117-29.405-0.26
						c0-0.144,13.163-0.26,29.405-0.26C217.857,193.065,231.022,193.181,231.022,193.325z"/>
				</g>
			</g>
			<g>
				<g>
					<path style="fill:#E0E0E0;" d="M212.873,211.391c0,0.144-13.166,0.26-29.402,0.26c-16.242,0-29.405-0.117-29.405-0.26
						c0-0.144,13.163-0.26,29.405-0.26C199.708,211.131,212.873,211.248,212.873,211.391z"/>
				</g>
			</g>
			<g>
				<g>
					<path style="fill:#E0E0E0;" d="M233.11,234.807c0,0.144-13.165,0.26-29.402,0.26c-16.242,0-29.405-0.117-29.405-0.26
						c0-0.144,13.163-0.26,29.405-0.26C219.945,234.547,233.11,234.664,233.11,234.807z"/>
				</g>
			</g>
			<g>
				<g>
					<path style="fill:#E0E0E0;" d="M179.416,255.726c0,0.144-13.165,0.26-29.402,0.26c-16.242,0-29.405-0.117-29.405-0.26
						c0-0.144,13.163-0.26,29.405-0.26C166.25,255.465,179.416,255.582,179.416,255.726z"/>
				</g>
			</g>
			<g>
				<g>
					<path style="fill:#E0E0E0;" d="M244.449,255.726c0,0.144-13.166,0.26-29.402,0.26c-16.242,0-29.405-0.117-29.405-0.26
						c0-0.144,13.163-0.26,29.405-0.26C231.283,255.465,244.449,255.582,244.449,255.726z"/>
				</g>
			</g>
			<g>
				<g>
					<path style="fill:#E0E0E0;" d="M179.411,262.531c0,0.144-13.165,0.26-29.402,0.26c-16.242,0-29.405-0.117-29.405-0.26
						s13.163-0.26,29.405-0.26C166.246,262.271,179.411,262.388,179.411,262.531z"/>
				</g>
			</g>
			<g>
				<g>
					<path style="fill:#E0E0E0;" d="M182.272,198.228c0,0.144-13.166,0.26-29.402,0.26c-16.242,0-29.405-0.117-29.405-0.26
						c0-0.144,13.163-0.26,29.405-0.26C169.107,197.968,182.272,198.084,182.272,198.228z"/>
				</g>
			</g>
			<g>
				<g>
					<path style="fill:#E0E0E0;" d="M166.59,193.389c0,0.144-3.391,0.26-7.574,0.26c-4.184,0-7.574-0.117-7.574-0.26
						s3.39-0.26,7.574-0.26C163.199,193.128,166.59,193.245,166.59,193.389z"/>
				</g>
			</g>
			<g>
				<g>
					<path style="fill:#E0E0E0;" d="M136.218,228.541c0,0.144-3.391,0.26-7.574,0.26c-4.184,0-7.574-0.117-7.574-0.26
						c0-0.144,3.391-0.26,7.574-0.26C132.827,228.281,136.218,228.397,136.218,228.541z"/>
				</g>
			</g>
			<g>
				<g>
					<path style="fill:#E0E0E0;" d="M135.859,234.807c0,0.144-3.391,0.26-7.574,0.26c-4.184,0-7.574-0.117-7.574-0.26
						c0-0.144,3.391-0.26,7.574-0.26C132.468,234.547,135.859,234.664,135.859,234.807z"/>
				</g>
			</g>
			<g>
				<g>
					<path style="fill:#E0E0E0;" d="M267.093,171.391c0,0.144-36.653,0.26-81.855,0.26c-45.219,0-81.863-0.117-81.863-0.26
						s36.645-0.26,81.863-0.26C230.441,171.131,267.093,171.247,267.093,171.391z"/>
				</g>
			</g>
			<g>
				<circle style="fill:#FFFFFF;" cx="114.418" cy="165.855" r="1.94"/>
			</g>
			<g>
				<circle style="fill:#FFFFFF;" cx="122.749" cy="165.855" r="1.94"/>
			</g>
			<g>
				<circle style="fill:#FFFFFF;" cx="131.081" cy="165.855" r="1.94"/>
			</g>
		</g>
	</g>
	<g>
		<g>
			<g>
				<polygon style="fill:#F5F5F5;" points="678.652,217.162 515.675,217.162 527.721,101.067 692.081,101.067 				"/>
			</g>
		</g>
		<g>
			<g>
				<g>
					<path style="fill:#E0E0E0;" d="M533.59,197.678c-0.143-0.015,1.542-17.474,3.762-38.991
						c2.221-21.524,4.138-38.956,4.281-38.941c0.143,0.015-1.541,17.47-3.763,38.994
						C535.649,180.258,533.733,197.693,533.59,197.678z"/>
				</g>
			</g>
			<g>
				<g>
					<path style="fill:#E0E0E0;" d="M563.265,123.629c0,0.144-3.663,0.26-8.181,0.26c-4.519,0-8.182-0.117-8.182-0.26
						c0-0.144,3.662-0.26,8.182-0.26C559.602,123.369,563.265,123.486,563.265,123.629z"/>
				</g>
			</g>
			<g>
				<g>
					<path style="fill:#E0E0E0;" d="M632.876,123.629c0,0.144-14.591,0.26-32.585,0.26c-18.001,0-32.589-0.117-32.589-0.26
						c0-0.144,14.588-0.26,32.589-0.26C618.285,123.369,632.876,123.486,632.876,123.629z"/>
				</g>
			</g>
			<g>
				<g>
					<path style="fill:#E0E0E0;" d="M561.336,164.887c0,0.144-3.663,0.26-8.181,0.26c-4.519,0-8.182-0.117-8.182-0.26
						c0-0.144,3.662-0.26,8.182-0.26C557.673,164.626,561.336,164.743,561.336,164.887z"/>
				</g>
			</g>
			<g>
				<g>
					<path style="fill:#E0E0E0;" d="M630.947,164.887c0,0.144-14.591,0.26-32.585,0.26c-18.001,0-32.589-0.117-32.589-0.26
						c0-0.144,14.588-0.26,32.589-0.26C616.357,164.626,630.947,164.743,630.947,164.887z"/>
				</g>
			</g>
			<g>
				<g>
					<path style="fill:#E0E0E0;" d="M608.747,183.906c0,0.144-14.591,0.261-32.586,0.261c-18.001,0-32.589-0.117-32.589-0.261
						c0-0.144,14.588-0.26,32.589-0.26C594.156,183.645,608.747,183.762,608.747,183.906z"/>
				</g>
			</g>
			<g>
				<g>
					<path style="fill:#E0E0E0;" d="M570.475,135.277c0,0.144-5.153,0.26-11.509,0.26c-6.358,0-11.51-0.117-11.51-0.26
						s5.152-0.26,11.51-0.26C565.322,135.017,570.475,135.134,570.475,135.277z"/>
				</g>
			</g>
			<g>
				<g>
					<path style="fill:#E0E0E0;" d="M569.889,152.354c0,0.144-5.153,0.261-11.509,0.261c-6.358,0-11.51-0.117-11.51-0.261
						c0-0.144,5.152-0.26,11.51-0.26C564.736,152.094,569.889,152.211,569.889,152.354z"/>
				</g>
			</g>
			<g>
				<g>
					<path style="fill:#E0E0E0;" d="M589.349,176.76c0,0.144-5.153,0.26-11.509,0.26c-6.358,0-11.51-0.117-11.51-0.26
						c0-0.144,5.152-0.26,11.51-0.26C584.196,176.499,589.349,176.616,589.349,176.76z"/>
				</g>
			</g>
			<g>
				<g>
					<path style="fill:#E0E0E0;" d="M654.216,135.277c0,0.144-13.166,0.26-29.402,0.26c-16.242,0-29.405-0.117-29.405-0.26
						s13.163-0.26,29.405-0.26C641.05,135.017,654.216,135.134,654.216,135.277z"/>
				</g>
			</g>
			<g>
				<g>
					<path style="fill:#E0E0E0;" d="M636.067,153.344c0,0.144-13.166,0.26-29.402,0.26c-16.242,0-29.405-0.117-29.405-0.26
						c0-0.144,13.163-0.26,29.405-0.26C622.901,153.083,636.067,153.2,636.067,153.344z"/>
				</g>
			</g>
			<g>
				<g>
					<path style="fill:#E0E0E0;" d="M656.303,176.76c0,0.144-13.165,0.26-29.402,0.26c-16.242,0-29.405-0.117-29.405-0.26
						c0-0.144,13.163-0.26,29.405-0.26C643.138,176.499,656.303,176.616,656.303,176.76z"/>
				</g>
			</g>
			<g>
				<g>
					<path style="fill:#E0E0E0;" d="M602.609,197.678c0,0.144-13.166,0.261-29.402,0.261c-16.242,0-29.405-0.117-29.405-0.261
						c0-0.144,13.163-0.26,29.405-0.26C589.443,197.418,602.609,197.534,602.609,197.678z"/>
				</g>
			</g>
			<g>
				<g>
					<path style="fill:#E0E0E0;" d="M667.642,197.678c0,0.144-13.166,0.261-29.402,0.261c-16.242,0-29.405-0.117-29.405-0.261
						c0-0.144,13.163-0.26,29.405-0.26C654.476,197.418,667.642,197.534,667.642,197.678z"/>
				</g>
			</g>
			<g>
				<g>
					<path style="fill:#E0E0E0;" d="M602.604,204.484c0,0.144-13.165,0.26-29.402,0.26c-16.242,0-29.405-0.117-29.405-0.26
						c0-0.144,13.163-0.26,29.405-0.26C589.439,204.223,602.604,204.34,602.604,204.484z"/>
				</g>
			</g>
			<g>
				<g>
					<path style="fill:#E0E0E0;" d="M605.466,140.18c0,0.144-13.166,0.26-29.402,0.26c-16.242,0-29.405-0.117-29.405-0.26
						s13.163-0.26,29.405-0.26C592.3,139.92,605.466,140.037,605.466,140.18z"/>
				</g>
			</g>
			<g>
				<g>
					<path style="fill:#E0E0E0;" d="M589.783,135.341c0,0.144-3.391,0.26-7.573,0.26c-4.184,0-7.574-0.116-7.574-0.26
						c0-0.144,3.391-0.26,7.574-0.26C586.392,135.081,589.783,135.197,589.783,135.341z"/>
				</g>
			</g>
			<g>
				<g>
					<path style="fill:#E0E0E0;" d="M559.411,170.493c0,0.144-3.391,0.26-7.573,0.26c-4.184,0-7.574-0.117-7.574-0.26
						s3.391-0.26,7.574-0.26C556.02,170.233,559.411,170.35,559.411,170.493z"/>
				</g>
			</g>
			<g>
				<g>
					<path style="fill:#E0E0E0;" d="M559.053,176.76c0,0.144-3.391,0.26-7.573,0.26c-4.184,0-7.574-0.117-7.574-0.26
						c0-0.144,3.39-0.26,7.574-0.26C555.662,176.499,559.053,176.616,559.053,176.76z"/>
				</g>
			</g>
			<g>
				<g>
					<path style="fill:#E0E0E0;" d="M690.286,113.344c0,0.144-36.653,0.26-81.855,0.26c-45.219,0-81.863-0.117-81.863-0.26
						c0-0.144,36.645-0.26,81.863-0.26C653.634,113.083,690.286,113.2,690.286,113.344z"/>
				</g>
			</g>
			<g>
				<circle style="fill:#FFFFFF;" cx="537.611" cy="107.808" r="1.94"/>
			</g>
			<g>
				<circle style="fill:#FFFFFF;" cx="545.943" cy="107.808" r="1.94"/>
			</g>
			<g>
				<circle style="fill:#FFFFFF;" cx="554.274" cy="107.808" r="1.94"/>
			</g>
		</g>
	</g>
	<g>
		<g>
			<g>
				<polygon style="fill:#EBEBEB;" points="336.817,141.357 235.311,141.357 242.813,69.05 345.182,69.05 				"/>
			</g>
		</g>
		<g>
			<g>
				<g>
					<path style="fill:#E0E0E0;" d="M246.469,129.222c-0.143-0.015,0.862-10.893,2.245-24.294
						c1.383-13.406,2.621-24.258,2.764-24.243c0.143,0.015-0.862,10.891-2.246,24.297
						C247.849,118.383,246.611,129.237,246.469,129.222z"/>
				</g>
			</g>
			<g>
				<g>
					<path style="fill:#E0E0E0;" d="M264.951,83.103c0,0.144-2.281,0.26-5.095,0.26c-2.815,0-5.096-0.117-5.096-0.26
						s2.281-0.26,5.096-0.26C262.669,82.842,264.951,82.959,264.951,83.103z"/>
				</g>
			</g>
			<g>
				<g>
					<path style="fill:#E0E0E0;" d="M308.307,83.103c0,0.144-9.088,0.26-20.295,0.26c-11.211,0-20.297-0.117-20.297-0.26
						s9.086-0.26,20.297-0.26C299.219,82.842,308.307,82.959,308.307,83.103z"/>
				</g>
			</g>
			<g>
				<g>
					<path style="fill:#E0E0E0;" d="M263.75,108.799c0,0.144-2.282,0.26-5.095,0.26c-2.815,0-5.096-0.117-5.096-0.26
						c0-0.144,2.281-0.26,5.096-0.26C261.468,108.539,263.75,108.655,263.75,108.799z"/>
				</g>
			</g>
			<g>
				<g>
					<path style="fill:#E0E0E0;" d="M307.106,108.799c0,0.144-9.088,0.26-20.295,0.26c-11.211,0-20.297-0.117-20.297-0.26
						c0-0.144,9.086-0.26,20.297-0.26C298.018,108.539,307.106,108.655,307.106,108.799z"/>
				</g>
			</g>
			<g>
				<g>
					<path style="fill:#E0E0E0;" d="M293.279,120.645c0,0.144-9.088,0.26-20.295,0.26c-11.212,0-20.297-0.117-20.297-0.26
						c0-0.144,9.086-0.26,20.297-0.26C284.191,120.384,293.279,120.501,293.279,120.645z"/>
				</g>
			</g>
			<g>
				<g>
					<path style="fill:#E0E0E0;" d="M269.442,90.357c0,0.144-3.21,0.26-7.168,0.26c-3.96,0-7.169-0.117-7.169-0.26
						c0-0.144,3.209-0.26,7.169-0.26C266.232,90.097,269.442,90.214,269.442,90.357z"/>
				</g>
			</g>
			<g>
				<g>
					<path style="fill:#E0E0E0;" d="M269.077,100.993c0,0.144-3.21,0.26-7.168,0.26c-3.96,0-7.169-0.117-7.169-0.26
						c0-0.144,3.209-0.26,7.169-0.26C265.867,100.733,269.077,100.85,269.077,100.993z"/>
				</g>
			</g>
			<g>
				<g>
					<path style="fill:#E0E0E0;" d="M281.197,116.194c0,0.144-3.21,0.26-7.168,0.26c-3.96,0-7.169-0.117-7.169-0.26
						c0-0.144,3.209-0.26,7.169-0.26C277.988,115.934,281.197,116.05,281.197,116.194z"/>
				</g>
			</g>
			<g>
				<g>
					<path style="fill:#E0E0E0;" d="M321.598,90.357c0,0.144-8.2,0.26-18.313,0.26c-10.116,0-18.314-0.117-18.314-0.26
						c0-0.144,8.198-0.26,18.314-0.26C313.398,90.097,321.598,90.214,321.598,90.357z"/>
				</g>
			</g>
			<g>
				<g>
					<path style="fill:#E0E0E0;" d="M310.294,101.61c0,0.144-8.2,0.26-18.313,0.26c-10.116,0-18.314-0.117-18.314-0.26
						c0-0.144,8.198-0.26,18.314-0.26C302.094,101.349,310.294,101.466,310.294,101.61z"/>
				</g>
			</g>
			<g>
				<g>
					<path style="fill:#E0E0E0;" d="M322.898,116.194c0,0.144-8.2,0.26-18.313,0.26c-10.116,0-18.314-0.117-18.314-0.26
						c0-0.144,8.198-0.26,18.314-0.26C314.698,115.934,322.898,116.05,322.898,116.194z"/>
				</g>
			</g>
			<g>
				<g>
					<path style="fill:#E0E0E0;" d="M289.456,129.222c0,0.144-8.2,0.26-18.313,0.26c-10.116,0-18.314-0.117-18.314-0.26
						s8.198-0.26,18.314-0.26C281.256,128.962,289.456,129.079,289.456,129.222z"/>
				</g>
			</g>
			<g>
				<g>
					<path style="fill:#E0E0E0;" d="M329.96,129.222c0,0.144-8.2,0.26-18.313,0.26c-10.116,0-18.314-0.117-18.314-0.26
						s8.198-0.26,18.314-0.26C321.76,128.962,329.96,129.079,329.96,129.222z"/>
				</g>
			</g>
			<g>
				<g>
					<path style="fill:#E0E0E0;" d="M289.453,133.461c0,0.144-8.2,0.26-18.313,0.26c-10.116,0-18.314-0.117-18.314-0.26
						c0-0.144,8.198-0.26,18.314-0.26C281.253,133.201,289.453,133.318,289.453,133.461z"/>
				</g>
			</g>
			<g>
				<g>
					<path style="fill:#E0E0E0;" d="M291.235,93.411c0,0.144-8.2,0.26-18.313,0.26c-10.116,0-18.314-0.117-18.314-0.26
						s8.198-0.26,18.314-0.26C283.035,93.151,291.235,93.267,291.235,93.411z"/>
				</g>
			</g>
			<g>
				<g>
					<path style="fill:#E0E0E0;" d="M281.467,90.397c0,0.144-2.112,0.26-4.717,0.26c-2.606,0-4.717-0.117-4.717-0.26
						c0-0.144,2.112-0.26,4.717-0.26C279.355,90.137,281.467,90.253,281.467,90.397z"/>
				</g>
			</g>
			<g>
				<g>
					<path style="fill:#E0E0E0;" d="M262.551,112.291c0,0.144-2.112,0.26-4.717,0.26c-2.606,0-4.717-0.117-4.717-0.26
						c0-0.144,2.112-0.26,4.717-0.26C260.439,112.031,262.551,112.147,262.551,112.291z"/>
				</g>
			</g>
			<g>
				<g>
					<path style="fill:#E0E0E0;" d="M262.328,116.194c0,0.144-2.112,0.26-4.717,0.26c-2.606,0-4.717-0.117-4.717-0.26
						c0-0.144,2.112-0.26,4.717-0.26C260.215,115.934,262.328,116.05,262.328,116.194z"/>
				</g>
			</g>
			<g>
				<g>
					<path style="fill:#E0E0E0;" d="M344.064,76.696c0,0.144-22.828,0.26-50.982,0.26c-28.163,0-50.987-0.117-50.987-0.26
						c0-0.144,22.824-0.26,50.987-0.26C321.236,76.436,344.064,76.553,344.064,76.696z"/>
				</g>
			</g>
			<g>
				<path style="fill:#FFFFFF;" d="M250.181,73.248c0,0.667-0.541,1.208-1.208,1.208c-0.667,0-1.208-0.541-1.208-1.208
					c0-0.667,0.541-1.208,1.208-1.208C249.64,72.04,250.181,72.581,250.181,73.248z"/>
			</g>
			<g>
				<path style="fill:#FFFFFF;" d="M255.37,73.248c0,0.667-0.541,1.208-1.208,1.208c-0.667,0-1.208-0.541-1.208-1.208
					c0-0.667,0.541-1.208,1.208-1.208C254.83,72.04,255.37,72.581,255.37,73.248z"/>
			</g>
			<g>
				<path style="fill:#FFFFFF;" d="M260.56,73.248c0,0.667-0.541,1.208-1.208,1.208c-0.667,0-1.208-0.541-1.208-1.208
					c0-0.667,0.541-1.208,1.208-1.208C260.019,72.04,260.56,72.581,260.56,73.248z"/>
			</g>
		</g>
	</g>
	<g>
		<g>
			<g>
				<g>
					<g>
						<rect x="561.576" y="267.549" style="fill:#EBEBEB;" width="51.12" height="165.456"/>
					</g>
				</g>
			</g>
			<g>
				<g>
					<g>
						<rect x="612.696" y="267.578" style="fill:#E0E0E0;" width="43.397" height="165.399"/>
					</g>
				</g>
			</g>
			<g>
				<g>
					<g>
						<rect x="565.57" y="274.249" style="fill:#E0E0E0;" width="41.013" height="35.644"/>
					</g>
				</g>
			</g>
			<g>
				<g>
					<g>
						<rect x="565.57" y="313.931" style="fill:#E0E0E0;" width="41.013" height="35.643"/>
					</g>
				</g>
			</g>
			<g>
				<g>
					<g>
						<rect x="565.57" y="353.613" style="fill:#E0E0E0;" width="41.013" height="35.643"/>
					</g>
				</g>
			</g>
			<g>
				<g>
					<g>
						<rect x="565.57" y="393.295" style="fill:#E0E0E0;" width="41.013" height="35.644"/>
					</g>
				</g>
			</g>
			<g>
				<g>
					<g>
						<path style="fill:#FAFAFA;" d="M586.076,280.831c0,0.787-0.638,1.424-1.424,1.424c-0.787,0-1.424-0.638-1.424-1.424
							c0-0.787,0.638-1.424,1.424-1.424C585.438,279.406,586.076,280.044,586.076,280.831z"/>
					</g>
				</g>
			</g>
			<g>
				<g>
					<g>
						<path style="fill:#FAFAFA;" d="M586.076,320.974c0,0.787-0.638,1.424-1.424,1.424c-0.787,0-1.424-0.638-1.424-1.424
							c0-0.787,0.638-1.424,1.424-1.424C585.438,319.55,586.076,320.188,586.076,320.974z"/>
					</g>
				</g>
			</g>
			<g>
				<g>
					<g>
						<path style="fill:#FAFAFA;" d="M586.076,361.118c0,0.787-0.638,1.424-1.424,1.424c-0.787,0-1.424-0.638-1.424-1.424
							c0-0.787,0.638-1.424,1.424-1.424C585.438,359.694,586.076,360.331,586.076,361.118z"/>
					</g>
				</g>
			</g>
			<g>
				<g>
					<g>
						<path style="fill:#FAFAFA;" d="M586.076,401.262c0,0.787-0.638,1.424-1.424,1.424c-0.787,0-1.424-0.638-1.424-1.424
							c0-0.787,0.638-1.424,1.424-1.424C585.438,399.837,586.076,400.475,586.076,401.262z"/>
					</g>
				</g>
			</g>
		</g>
		<g>
			<g>
				<rect x="561.576" y="433.006" style="fill:#E0E0E0;" width="5.909" height="33.187"/>
			</g>
		</g>
		<g>
			<g>
				<rect x="606.582" y="433.006" style="fill:#E0E0E0;" width="5.909" height="33.187"/>
			</g>
		</g>
		<g>
			<g>
				<rect x="649.551" y="433.006" style="fill:#E0E0E0;" width="5.909" height="33.187"/>
			</g>
		</g>
	</g>
	<g>
		<g>
			<path style="fill:#F5F5F5;" d="M132.141,456.833c-1.515-1.293-4.896-5.392-2.289-10.159c0.956-1.748,2.985-2.612,4.823-3.382
				c1.837-0.77,3.768-1.439,5.288-2.727c2.867-2.428,3.658-6.462,5.561-9.701c2.185-3.718,6.263-6.504,10.571-6.309
				c4.934,0.223,9.049,4.235,10.914,8.808c1.865,4.573,1.93,9.652,1.969,14.591c0.021,2.731-0.101,5.81-2.115,7.654
				c-1.857,1.701-4.653,1.721-7.17,1.644c-8.987-0.275-17.975-0.55-26.963-0.824"/>
		</g>
		<g>
			<g>
				<path style="fill:#E0E0E0;" d="M183.711,383.031h-70.908l12.773,75.812c0.559,3.311,2.965,5.863,6.054,6.75
					c0.082,0.026,0.166,0.044,0.248,0.068c0.211,0.054,0.415,0.125,0.631,0.162c0.467,0.096,0.951,0.145,1.442,0.165
					c0.004,0.024,0.008,0.049,0.012,0.073l0.346-0.055c0.001,0,0.001,0,0.002,0h31.602c0.594,0,1.175-0.061,1.736-0.172
					c3.732-0.575,6.719-3.556,7.174-7.41l6.157-52.236l0.278-2.077h-0.033l2.439-20.687L183.711,383.031z M170.334,431.39h-7.277
					l0.734-22.003h8.431L170.334,431.39z M172.929,409.387h6.967l-2.594,22.003h-6.262L172.929,409.387z M152.14,455.781
					l-0.442-19.115h10.479l-0.638,19.115H152.14z M140.811,436.666h10.182l0.442,19.115h-9.132L140.811,436.666z M141.598,455.781
					h-8.537c-0.811-5.161-1.867-11.868-3.01-19.115h10.054L141.598,455.781z M140.399,431.39l-1.718-22.003h11.681l0.509,22.003
					H140.399z M151.575,431.39l-0.509-22.003h12.021l-0.734,22.003H151.575z M150.944,404.111l-0.471-20.376h13.47l-0.68,20.376
					H150.944z M150.24,404.111h-11.971l-1.591-20.376h13.09L150.24,404.111z M137.564,404.111h-12.666
					c-0.448-2.814-0.874-5.478-1.258-7.875c-1.321-8.238-1.818-11.336-2.094-12.502h14.426L137.564,404.111z M137.976,409.387
					l1.718,22.003h-10.474c-0.352-2.233-0.709-4.491-1.066-6.751c-0.821-5.194-1.643-10.386-2.416-15.252H137.976z M128.507,431.39
					h-6.843l-3.707-22.003h7.067C126.104,416.187,127.302,423.755,128.507,431.39z M129.339,436.666
					c1.043,6.614,2.07,13.136,3.009,19.115h-6.575l-3.221-19.115H129.339z M162.243,455.781l0.638-19.115h7l-1.641,19.115H162.243z
					 M163.968,404.111l0.68-20.376h9.777l-1.749,20.376H163.968z M120.876,383.735c0.281,1.473,1.575,9.491,3.309,20.376h-7.117
					l-3.433-20.376H120.876z M174.427,455.781h-5.48l1.641-19.115h6.093L174.427,455.781z M180.517,404.111h-7.136l1.749-20.376
					h7.788L180.517,404.111z"/>
			</g>
		</g>
	</g>
</g>
<g id="Background_Simple" style="display:none;">
	<path style="display:inline;fill:#EBEBEB;" d="M190.46,144.704c-6.078,9.239-13.783,23.021-16.273,33.796
		c-7.877,34.096-6.735,56.086,6.227,86.148c9,20.871,22.428,31.723,37.371,48.85c11.902,13.642,29.694,26.813,45.216,36.131
		c22.486,13.498,43.256,23.495,68.325,31.202c31.31,9.626,64.688,9.564,97.43,8.603c37.199-1.092,76.052-3.727,107.996-22.822
		c31.699-18.95,53.303-53.832,56.145-90.654c1.532-19.853-2.509-40.852-15.011-56.351c-11.783-14.608-30.046-22.981-48.607-25.757
		c-18.562-2.776-37.526-0.422-55.907,3.37c-21.029,4.338-43.291,10.488-63.411,2.988c-25.984-9.687-38.788-38.159-57.805-58.343
		c-21.305-22.614-52.613-35.441-83.66-34.278c-31.048,1.163-58.473,12.956-78.027,37.1L190.46,144.704z"/>
</g>
<g id="Floor">
	<g>
		<g>
			<path style="fill:#263238;" d="M651.038,466.193c0,0.144-129.417,0.26-289.024,0.26c-159.662,0-289.052-0.117-289.052-0.26
				s129.389-0.26,289.052-0.26C521.621,465.932,651.038,466.049,651.038,466.193z"/>
		</g>
	</g>
</g>
<g id="Screens">
	<g>
		<g>
			<g>
				<polygon style="fill:#263238;" points="396.181,249.879 285.278,249.879 293.475,170.878 405.32,170.878 				"/>
			</g>
			<g>
				<polygon style="fill:#455A64;" points="390.535,249.879 279.632,249.879 287.829,170.878 399.674,170.878 				"/>
			</g>
			<g>
				<polygon style="fill:#F5F5F5;" points="386.423,246.302 283.513,246.302 291.12,172.995 394.903,172.995 				"/>
			</g>
		</g>
		<g>
			<g>
				<g>
					<path style="fill:#263238;" d="M294.667,234.077c-0.143-0.015,0.878-11.043,2.28-24.63c1.403-13.591,2.655-24.594,2.798-24.579
						c0.143,0.015-0.878,11.041-2.28,24.632C296.062,223.087,294.81,234.092,294.667,234.077z"/>
				</g>
			</g>
			<g>
				<g>
					<path style="fill:#263238;" d="M313.404,187.32c0,0.144-2.313,0.26-5.166,0.26c-2.854,0-5.166-0.117-5.166-0.26
						c0-0.144,2.313-0.26,5.166-0.26C311.091,187.059,313.404,187.176,313.404,187.32z"/>
				</g>
			</g>
			<g>
				<g>
					<path style="fill:#E8505B;" d="M357.359,187.32c0,0.144-9.213,0.26-20.576,0.26c-11.366,0-20.578-0.117-20.578-0.26
						c0-0.144,9.211-0.26,20.578-0.26C348.146,187.059,357.359,187.176,357.359,187.32z"/>
				</g>
			</g>
			<g>
				<g>
					<path style="fill:#263238;" d="M312.186,213.371c0,0.144-2.313,0.26-5.166,0.26c-2.854,0-5.166-0.117-5.166-0.26
						c0-0.144,2.313-0.26,5.166-0.26C309.873,213.111,312.186,213.227,312.186,213.371z"/>
				</g>
			</g>
			<g>
				<g>
					<path style="fill:#E8505B;" d="M356.142,213.371c0,0.144-9.213,0.26-20.576,0.26c-11.366,0-20.577-0.117-20.577-0.26
						c0-0.144,9.211-0.26,20.577-0.26C346.928,213.111,356.142,213.227,356.142,213.371z"/>
				</g>
			</g>
			<g>
				<g>
					<path style="fill:#E8505B;" d="M342.124,225.38c0,0.144-9.213,0.26-20.576,0.26c-11.366,0-20.578-0.117-20.578-0.26
						s9.211-0.26,20.578-0.26C332.91,225.12,342.124,225.237,342.124,225.38z"/>
				</g>
			</g>
			<g>
				<g>
					<path style="fill:#E8505B;" d="M317.957,194.675c0,0.144-3.254,0.26-7.267,0.26c-4.015,0-7.268-0.117-7.268-0.26
						s3.253-0.26,7.268-0.26C314.703,194.414,317.957,194.531,317.957,194.675z"/>
				</g>
			</g>
			<g>
				<g>
					<path style="fill:#E8505B;" d="M317.587,205.458c0,0.144-3.254,0.26-7.267,0.26c-4.014,0-7.268-0.117-7.268-0.26
						c0-0.144,3.253-0.26,7.268-0.26C314.333,205.197,317.587,205.314,317.587,205.458z"/>
				</g>
			</g>
			<g>
				<g>
					<path style="fill:#E8505B;" d="M329.875,220.868c0,0.144-3.254,0.26-7.267,0.26c-4.014,0-7.268-0.117-7.268-0.26
						s3.253-0.26,7.268-0.26C326.621,220.608,329.875,220.724,329.875,220.868z"/>
				</g>
			</g>
			<g>
				<g>
					<path style="fill:#263238;" d="M370.834,194.675c0,0.144-8.313,0.26-18.566,0.26c-10.256,0-18.568-0.117-18.568-0.26
						s8.311-0.26,18.568-0.26C362.521,194.414,370.834,194.531,370.834,194.675z"/>
				</g>
			</g>
			<g>
				<g>
					<path style="fill:#263238;" d="M359.374,206.083c0,0.144-8.313,0.26-18.566,0.26c-10.256,0-18.568-0.117-18.568-0.26
						s8.311-0.26,18.568-0.26C351.061,205.822,359.374,205.939,359.374,206.083z"/>
				</g>
			</g>
			<g>
				<g>
					<path style="fill:#263238;" d="M372.152,220.868c0,0.144-8.313,0.26-18.566,0.26c-10.256,0-18.567-0.117-18.567-0.26
						s8.311-0.26,18.567-0.26C363.839,220.608,372.152,220.724,372.152,220.868z"/>
				</g>
			</g>
			<g>
				<g>
					<path style="fill:#263238;" d="M338.248,234.077c0,0.144-8.313,0.26-18.566,0.26c-10.256,0-18.567-0.117-18.567-0.26
						s8.311-0.26,18.567-0.26C329.934,233.816,338.248,233.933,338.248,234.077z"/>
				</g>
			</g>
			<g>
				<g>
					<path style="fill:#263238;" d="M379.312,234.077c0,0.144-8.313,0.26-18.566,0.26c-10.256,0-18.567-0.117-18.567-0.26
						s8.311-0.26,18.567-0.26C370.999,233.816,379.312,233.933,379.312,234.077z"/>
				</g>
			</g>
			<g>
				<g>
					<path style="fill:#263238;" d="M338.245,238.374c0,0.144-8.313,0.26-18.566,0.26c-10.256,0-18.567-0.117-18.567-0.26
						c0-0.144,8.311-0.26,18.567-0.26C329.932,238.114,338.245,238.23,338.245,238.374z"/>
				</g>
			</g>
			<g>
				<g>
					<path style="fill:#263238;" d="M340.051,197.771c0,0.144-8.313,0.26-18.566,0.26c-10.256,0-18.567-0.117-18.567-0.26
						c0-0.144,8.311-0.26,18.567-0.26C331.738,197.51,340.051,197.627,340.051,197.771z"/>
				</g>
			</g>
			<g>
				<g>
					<path style="fill:#455A64;" d="M330.149,194.715c0,0.144-2.141,0.26-4.782,0.26c-2.642,0-4.783-0.117-4.783-0.26
						c0-0.144,2.141-0.26,4.783-0.26C328.008,194.455,330.149,194.571,330.149,194.715z"/>
				</g>
			</g>
			<g>
				<g>
					<path style="fill:#455A64;" d="M310.971,216.911c0,0.144-2.141,0.26-4.782,0.26c-2.642,0-4.783-0.117-4.783-0.26
						c0-0.144,2.141-0.26,4.783-0.26C308.83,216.651,310.971,216.768,310.971,216.911z"/>
				</g>
			</g>
			<g>
				<g>
					<path style="fill:#455A64;" d="M310.745,220.868c0,0.144-2.141,0.26-4.782,0.26c-2.642,0-4.783-0.117-4.783-0.26
						s2.141-0.26,4.783-0.26C308.603,220.608,310.745,220.724,310.745,220.868z"/>
				</g>
			</g>
			<g>
				<g>
					<path style="fill:#263238;" d="M393.611,180.825c0,0.144-23.144,0.26-51.686,0.26c-28.553,0-51.691-0.117-51.691-0.26
						c0-0.144,23.139-0.26,51.691-0.26C370.467,180.565,393.611,180.681,393.611,180.825z"/>
				</g>
			</g>
			<g>
				<path style="fill:#FFFFFF;" d="M298.431,177.329c0,0.676-0.548,1.225-1.225,1.225c-0.676,0-1.225-0.548-1.225-1.225
					c0-0.676,0.548-1.225,1.225-1.225C297.882,176.104,298.431,176.653,298.431,177.329z"/>
			</g>
			<g>
				<path style="fill:#FFFFFF;" d="M303.691,177.329c0,0.676-0.548,1.225-1.225,1.225c-0.676,0-1.225-0.548-1.225-1.225
					c0-0.676,0.548-1.225,1.225-1.225C303.143,176.104,303.691,176.653,303.691,177.329z"/>
			</g>
			<g>
				<path style="fill:#FFFFFF;" d="M308.952,177.329c0,0.676-0.548,1.225-1.225,1.225c-0.677,0-1.225-0.548-1.225-1.225
					c0-0.676,0.548-1.225,1.225-1.225C308.404,176.104,308.952,176.653,308.952,177.329z"/>
			</g>
		</g>
	</g>
	<g>
		<g>
			<g>
				<polygon style="fill:#263238;" points="541.874,252.275 425.212,252.275 433.835,169.172 551.487,169.172 				"/>
			</g>
			<g>
				<polygon style="fill:#455A64;" points="535.935,252.275 419.273,252.275 427.896,169.172 545.548,169.172 				"/>
			</g>
			<g>
				<polygon style="fill:#EBEBEB;" points="531.609,248.513 423.356,248.513 431.357,171.399 540.529,171.399 				"/>
			</g>
		</g>
		<g>
			<g>
				<g>
					<path style="fill:#263238;" d="M435.149,234.49c-0.143-0.015,0.937-11.615,2.412-25.907c1.475-14.297,2.787-25.871,2.93-25.856
						c0.143,0.015-0.937,11.613-2.412,25.91C436.604,222.928,435.292,234.505,435.149,234.49z"/>
				</g>
			</g>
			<g>
				<g>
					<path style="fill:#263238;" d="M454.86,185.305c0,0.144-2.433,0.26-5.434,0.26c-3.002,0-5.435-0.117-5.435-0.26
						s2.433-0.26,5.435-0.26C452.427,185.045,454.86,185.161,454.86,185.305z"/>
				</g>
			</g>
			<g>
				<g>
					<path style="fill:#E8505B;" d="M501.098,185.305c0,0.144-9.692,0.26-21.644,0.26c-11.957,0-21.646-0.117-21.646-0.26
						s9.69-0.26,21.646-0.26C491.406,185.045,501.098,185.161,501.098,185.305z"/>
				</g>
			</g>
			<g>
				<g>
					<path style="fill:#263238;" d="M453.579,212.709c0,0.144-2.433,0.26-5.434,0.26c-3.002,0-5.435-0.117-5.435-0.26
						s2.433-0.26,5.435-0.26C451.146,212.449,453.579,212.566,453.579,212.709z"/>
				</g>
			</g>
			<g>
				<g>
					<path style="fill:#E8505B;" d="M499.816,212.709c0,0.144-9.692,0.26-21.644,0.26c-11.957,0-21.646-0.117-21.646-0.26
						s9.689-0.26,21.646-0.26C490.125,212.449,499.816,212.566,499.816,212.709z"/>
				</g>
			</g>
			<g>
				<g>
					<path style="fill:#E8505B;" d="M485.071,225.342c0,0.144-9.692,0.26-21.644,0.26c-11.957,0-21.646-0.117-21.646-0.26
						s9.69-0.26,21.646-0.26C475.379,225.082,485.071,225.198,485.071,225.342z"/>
				</g>
			</g>
			<g>
				<g>
					<path style="fill:#E8505B;" d="M459.65,193.042c0,0.144-3.423,0.26-7.645,0.26c-4.223,0-7.645-0.117-7.645-0.26
						s3.422-0.26,7.645-0.26C456.227,192.782,459.65,192.898,459.65,193.042z"/>
				</g>
			</g>
			<g>
				<g>
					<path style="fill:#E8505B;" d="M459.26,204.385c0,0.144-3.423,0.26-7.645,0.26c-4.223,0-7.645-0.117-7.645-0.26
						s3.422-0.26,7.645-0.26C455.837,204.125,459.26,204.241,459.26,204.385z"/>
				</g>
			</g>
			<g>
				<g>
					<path style="fill:#E8505B;" d="M472.186,220.596c0,0.144-3.423,0.26-7.645,0.26c-4.223,0-7.645-0.117-7.645-0.26
						s3.422-0.26,7.645-0.26C468.763,220.335,472.186,220.452,472.186,220.596z"/>
				</g>
			</g>
			<g>
				<g>
					<path style="fill:#263238;" d="M515.272,193.042c0,0.144-8.745,0.26-19.53,0.26c-10.789,0-19.532-0.117-19.532-0.26
						s8.743-0.26,19.532-0.26C506.527,192.782,515.272,192.898,515.272,193.042z"/>
				</g>
			</g>
			<g>
				<g>
					<path style="fill:#263238;" d="M503.217,205.042c0,0.144-8.745,0.26-19.53,0.26c-10.789,0-19.532-0.117-19.532-0.26
						s8.743-0.26,19.532-0.26C494.472,204.782,503.217,204.898,503.217,205.042z"/>
				</g>
			</g>
			<g>
				<g>
					<path style="fill:#263238;" d="M516.659,220.596c0,0.144-8.745,0.26-19.53,0.26c-10.789,0-19.532-0.117-19.532-0.26
						s8.743-0.26,19.532-0.26C507.914,220.335,516.659,220.452,516.659,220.596z"/>
				</g>
			</g>
			<g>
				<g>
					<path style="fill:#263238;" d="M480.993,234.49c0,0.144-8.745,0.26-19.53,0.26c-10.788,0-19.531-0.117-19.531-0.26
						s8.743-0.26,19.531-0.26C472.249,234.23,480.993,234.346,480.993,234.49z"/>
				</g>
			</g>
			<g>
				<g>
					<path style="fill:#263238;" d="M524.19,234.49c0,0.144-8.745,0.26-19.53,0.26c-10.789,0-19.532-0.117-19.532-0.26
						s8.743-0.26,19.532-0.26C515.445,234.23,524.19,234.346,524.19,234.49z"/>
				</g>
			</g>
			<g>
				<g>
					<path style="fill:#263238;" d="M480.99,239.011c0,0.144-8.745,0.26-19.53,0.26c-10.789,0-19.532-0.117-19.532-0.26
						s8.743-0.26,19.532-0.26C472.246,238.75,480.99,238.867,480.99,239.011z"/>
				</g>
			</g>
			<g>
				<g>
					<path style="fill:#263238;" d="M482.891,196.299c0,0.144-8.745,0.26-19.53,0.26c-10.789,0-19.531-0.117-19.531-0.26
						c0-0.144,8.743-0.26,19.531-0.26C474.146,196.038,482.891,196.155,482.891,196.299z"/>
				</g>
			</g>
			<g>
				<g>
					<path style="fill:#455A64;" d="M472.474,193.084c0,0.144-2.253,0.26-5.031,0.26c-2.779,0-5.031-0.117-5.031-0.26
						s2.252-0.26,5.031-0.26C470.222,192.824,472.474,192.941,472.474,193.084z"/>
				</g>
			</g>
			<g>
				<g>
					<path style="fill:#455A64;" d="M452.3,216.433c0,0.144-2.253,0.26-5.03,0.26c-2.779,0-5.031-0.117-5.031-0.26
						s2.252-0.26,5.031-0.26C450.048,216.173,452.3,216.29,452.3,216.433z"/>
				</g>
			</g>
			<g>
				<g>
					<path style="fill:#455A64;" d="M452.063,220.596c0,0.144-2.253,0.26-5.03,0.26c-2.779,0-5.031-0.117-5.031-0.26
						s2.252-0.26,5.031-0.26C449.81,220.335,452.063,220.452,452.063,220.596z"/>
				</g>
			</g>
			<g>
				<g>
					<path style="fill:#263238;" d="M539.231,178.473c0,0.144-24.346,0.26-54.37,0.26c-30.035,0-54.376-0.117-54.376-0.26
						c0-0.144,24.34-0.26,54.376-0.26C514.885,178.213,539.231,178.329,539.231,178.473z"/>
				</g>
			</g>
			<g>
				<path style="fill:#FFFFFF;" d="M439.109,174.796c0,0.712-0.577,1.288-1.289,1.288c-0.712,0-1.288-0.577-1.288-1.288
					c0-0.712,0.577-1.288,1.288-1.288C438.532,173.507,439.109,174.084,439.109,174.796z"/>
			</g>
			<g>
				<path style="fill:#FFFFFF;" d="M444.643,174.796c0,0.712-0.577,1.288-1.288,1.288s-1.288-0.577-1.288-1.288
					c0-0.712,0.577-1.288,1.288-1.288S444.643,174.084,444.643,174.796z"/>
			</g>
			<g>
				<path style="fill:#FFFFFF;" d="M450.177,174.796c0,0.712-0.577,1.288-1.289,1.288s-1.288-0.577-1.288-1.288
					c0-0.712,0.577-1.288,1.288-1.288S450.177,174.084,450.177,174.796z"/>
			</g>
		</g>
	</g>
	<g>
		<g>
			<g>
				<polygon style="fill:#263238;" points="475.308,153.898 363.904,153.898 372.138,74.541 484.487,74.541 				"/>
			</g>
			<g>
				<polygon style="fill:#455A64;" points="469.636,153.898 358.232,153.898 366.466,74.541 478.816,74.541 				"/>
			</g>
			<g>
				<polygon style="fill:#FAFAFA;" points="465.505,150.305 362.132,150.305 369.772,76.668 474.023,76.668 				"/>
			</g>
		</g>
		<g>
			<g>
				<g>
					<path style="fill:#263238;" d="M373.495,137.947c-0.143-0.015,0.883-11.093,2.292-24.741c1.409-13.653,2.667-24.705,2.81-24.69
						c0.143,0.015-0.883,11.091-2.292,24.743C374.896,126.907,373.637,137.961,373.495,137.947z"/>
				</g>
			</g>
			<g>
				<g>
					<path style="fill:#263238;" d="M392.317,90.979c0,0.144-2.324,0.26-5.189,0.26c-2.867,0-5.19-0.117-5.19-0.26
						s2.323-0.26,5.19-0.26C389.993,90.718,392.317,90.835,392.317,90.979z"/>
				</g>
			</g>
			<g>
				<g>
					<path style="fill:#E8505B;" d="M436.47,90.979c0,0.144-9.255,0.26-20.668,0.26c-11.418,0-20.671-0.117-20.671-0.26
						s9.253-0.26,20.671-0.26C427.215,90.718,436.47,90.835,436.47,90.979z"/>
				</g>
			</g>
			<g>
				<g>
					<path style="fill:#263238;" d="M391.094,117.148c0,0.144-2.324,0.26-5.189,0.26c-2.866,0-5.19-0.117-5.19-0.26
						c0-0.144,2.323-0.26,5.19-0.26C388.77,116.887,391.094,117.004,391.094,117.148z"/>
				</g>
			</g>
			<g>
				<g>
					<path style="fill:#E8505B;" d="M435.247,117.148c0,0.144-9.255,0.26-20.669,0.26c-11.418,0-20.67-0.117-20.67-0.26
						c0-0.144,9.253-0.26,20.67-0.26C425.992,116.887,435.247,117.004,435.247,117.148z"/>
				</g>
			</g>
			<g>
				<g>
					<path style="fill:#E8505B;" d="M421.166,129.211c0,0.144-9.255,0.26-20.669,0.26c-11.418,0-20.67-0.117-20.67-0.26
						s9.253-0.26,20.67-0.26C411.911,128.951,421.166,129.067,421.166,129.211z"/>
				</g>
			</g>
			<g>
				<g>
					<path style="fill:#E8505B;" d="M396.891,98.367c0,0.144-3.269,0.26-7.3,0.26c-4.033,0-7.301-0.117-7.301-0.26
						c0-0.144,3.268-0.26,7.301-0.26C393.622,98.106,396.891,98.223,396.891,98.367z"/>
				</g>
			</g>
			<g>
				<g>
					<path style="fill:#E8505B;" d="M396.519,109.198c0,0.144-3.269,0.26-7.3,0.26c-4.033,0-7.301-0.117-7.301-0.26
						c0-0.144,3.268-0.26,7.301-0.26C393.25,108.938,396.519,109.055,396.519,109.198z"/>
				</g>
			</g>
			<g>
				<g>
					<path style="fill:#E8505B;" d="M408.862,124.678c0,0.144-3.269,0.261-7.3,0.261c-4.033,0-7.301-0.117-7.301-0.261
						c0-0.144,3.268-0.26,7.301-0.26C405.593,124.418,408.862,124.535,408.862,124.678z"/>
				</g>
			</g>
			<g>
				<g>
					<path style="fill:#263238;" d="M450.006,98.367c0,0.144-8.351,0.26-18.65,0.26c-10.302,0-18.651-0.117-18.651-0.26
						c0-0.144,8.349-0.26,18.651-0.26C441.655,98.106,450.006,98.223,450.006,98.367z"/>
				</g>
			</g>
			<g>
				<g>
					<path style="fill:#263238;" d="M438.494,109.826c0,0.144-8.351,0.26-18.65,0.26c-10.302,0-18.651-0.117-18.651-0.26
						c0-0.144,8.349-0.26,18.651-0.26C430.143,109.566,438.494,109.682,438.494,109.826z"/>
				</g>
			</g>
			<g>
				<g>
					<path style="fill:#263238;" d="M451.33,124.678c0,0.144-8.351,0.261-18.649,0.261c-10.302,0-18.651-0.117-18.651-0.261
						c0-0.144,8.349-0.26,18.651-0.26C442.979,124.418,451.33,124.535,451.33,124.678z"/>
				</g>
			</g>
			<g>
				<g>
					<path style="fill:#263238;" d="M417.272,137.947c0,0.144-8.351,0.26-18.65,0.26c-10.302,0-18.651-0.117-18.651-0.26
						s8.349-0.26,18.651-0.26C408.922,137.686,417.272,137.803,417.272,137.947z"/>
				</g>
			</g>
			<g>
				<g>
					<path style="fill:#263238;" d="M458.522,137.947c0,0.144-8.351,0.26-18.65,0.26c-10.302,0-18.651-0.117-18.651-0.26
						s8.349-0.26,18.651-0.26C450.171,137.686,458.522,137.803,458.522,137.947z"/>
				</g>
			</g>
			<g>
				<g>
					<path style="fill:#263238;" d="M417.27,142.263c0,0.144-8.351,0.26-18.65,0.26c-10.302,0-18.651-0.117-18.651-0.26
						s8.349-0.26,18.651-0.26C408.919,142.003,417.27,142.12,417.27,142.263z"/>
				</g>
			</g>
			<g>
				<g>
					<path style="fill:#263238;" d="M419.084,101.477c0,0.144-8.351,0.26-18.649,0.26c-10.302,0-18.651-0.117-18.651-0.26
						c0-0.144,8.349-0.26,18.651-0.26C410.733,101.216,419.084,101.333,419.084,101.477z"/>
				</g>
			</g>
			<g>
				<g>
					<path style="fill:#455A64;" d="M409.137,98.407c0,0.144-2.151,0.26-4.804,0.26c-2.654,0-4.804-0.117-4.804-0.26
						c0-0.144,2.15-0.26,4.804-0.26C406.986,98.147,409.137,98.263,409.137,98.407z"/>
				</g>
			</g>
			<g>
				<g>
					<path style="fill:#455A64;" d="M389.873,120.704c0,0.144-2.151,0.26-4.804,0.26c-2.654,0-4.804-0.117-4.804-0.26
						c0-0.144,2.151-0.26,4.804-0.26C387.722,120.443,389.873,120.56,389.873,120.704z"/>
				</g>
			</g>
			<g>
				<g>
					<path style="fill:#455A64;" d="M389.645,124.678c0,0.144-2.151,0.261-4.804,0.261c-2.654,0-4.804-0.117-4.804-0.261
						c0-0.144,2.151-0.26,4.804-0.26C387.494,124.418,389.645,124.535,389.645,124.678z"/>
				</g>
			</g>
			<g>
				<g>
					<path style="fill:#263238;" d="M472.885,84.455c0,0.144-23.248,0.26-51.92,0.26c-28.681,0-51.925-0.117-51.925-0.26
						s23.243-0.26,51.925-0.26C449.637,84.194,472.885,84.311,472.885,84.455z"/>
				</g>
			</g>
			<g>
				<circle style="fill:#FFFFFF;" cx="376.045" cy="80.943" r="1.23"/>
			</g>
			<g>
				<circle style="fill:#FFFFFF;" cx="381.33" cy="80.943" r="1.23"/>
			</g>
			<g>
				<circle style="fill:#FFFFFF;" cx="386.615" cy="80.943" r="1.23"/>
			</g>
		</g>
	</g>
</g>
<g id="Character">
	<g>
		<g>
			<rect x="277.903" y="453.688" style="fill:#263238;" width="8.675" height="11.839"/>
		</g>
		<g>
			<g>
				<g>
					<g>
						<g>
							<g>
								
									<rect x="333.102" y="311.787" transform="matrix(-1 -1.224647e-16 1.224647e-16 -1 743.2178 627.3208)" style="fill:#263238;" width="77.013" height="3.746"/>
							</g>
						</g>
						<g>
							<g>
								<polygon style="fill:#263238;" points="422.051,315.533 436.496,261.4 376.363,261.4 363.282,315.533 								"/>
							</g>
						</g>
					</g>
					<g>
						<g>
							<polygon style="fill:#F5F5F5;" points="366.886,311.435 420.606,311.435 433.11,263.901 379.113,263.901 							"/>
						</g>
					</g>
				</g>
				<g>
					<polygon style="fill:#E0E0E0;" points="380.449,273.108 377.12,286.57 412.739,286.57 416.538,273.108 					"/>
				</g>
				<g>
					<g>
						<path style="fill:#455A64;" d="M409.025,271.334c0,0.144-6.248,0.26-13.953,0.26c-7.708,0-13.954-0.116-13.954-0.26
							c0-0.144,6.246-0.26,13.954-0.26C402.777,271.074,409.025,271.19,409.025,271.334z"/>
					</g>
				</g>
				<g>
					<g>
						<path style="fill:#263238;" d="M392.79,275.684c0,0.144-2.518,0.26-5.624,0.26c-3.107,0-5.624-0.117-5.624-0.26
							s2.517-0.26,5.624-0.26C390.272,275.424,392.79,275.541,392.79,275.684z"/>
					</g>
				</g>
				<g>
					<g>
						<path style="fill:#263238;" d="M401.809,275.472c0,0.144-1.639,0.26-3.661,0.26c-2.022,0-3.661-0.117-3.661-0.26
							s1.639-0.26,3.661-0.26C400.17,275.212,401.809,275.328,401.809,275.472z"/>
					</g>
				</g>
				<g>
					<g>
						<path style="fill:#455A64;" d="M411.996,278.125c0,0.144-6.889,0.26-15.385,0.26c-8.499,0-15.386-0.117-15.386-0.26
							s6.887-0.26,15.386-0.26C405.107,277.865,411.996,277.981,411.996,278.125z"/>
					</g>
				</g>
				<g>
					<g>
						<path style="fill:#E8505B;" d="M390.561,280.353c0,0.144-2.233,0.26-4.987,0.26c-2.755,0-4.987-0.117-4.987-0.26
							s2.233-0.26,4.987-0.26C388.328,280.093,390.561,280.209,390.561,280.353z"/>
					</g>
				</g>
				<g>
					<g>
						<path style="fill:#455A64;" d="M409.237,283.536c0,0.144-6.39,0.26-14.271,0.26c-7.884,0-14.272-0.117-14.272-0.26
							s6.389-0.26,14.272-0.26C402.846,283.276,409.237,283.393,409.237,283.536z"/>
					</g>
				</g>
				<g>
					<g>
						<path style="fill:#455A64;" d="M388.227,290.434c0,0.144-2.471,0.26-5.517,0.26c-3.048,0-5.518-0.117-5.518-0.26
							s2.47-0.26,5.518-0.26C385.757,290.173,388.227,290.29,388.227,290.434z"/>
					</g>
				</g>
				<g>
					<g>
						<path style="fill:#263238;" d="M397.671,290.476c-0.001,0.144-1.689,0.247-3.769,0.23c-2.081-0.017-3.766-0.147-3.765-0.291
							c0.001-0.144,1.688-0.247,3.769-0.23C395.987,290.202,397.672,290.332,397.671,290.476z"/>
					</g>
				</g>
				<g>
					<g>
						<path style="fill:#263238;" d="M402.976,290.221c0,0.144-0.713,0.26-1.592,0.26c-0.879,0-1.592-0.117-1.592-0.26
							s0.712-0.26,1.592-0.26C402.264,289.961,402.976,290.078,402.976,290.221z"/>
					</g>
				</g>
				<g>
					<g>
						<path style="fill:#E8505B;" d="M380.905,293.192c0,0.144-0.784,0.26-1.751,0.26c-0.967,0-1.751-0.116-1.751-0.26
							c0-0.144,0.784-0.26,1.751-0.26C380.122,292.932,380.905,293.049,380.905,293.192z"/>
					</g>
				</g>
				<g>
					<g>
						<path style="fill:#263238;" d="M391.41,293.192c0,0.144-1.877,0.26-4.191,0.26c-2.315,0-4.191-0.116-4.191-0.26
							c0-0.144,1.876-0.26,4.191-0.26C389.534,292.932,391.41,293.049,391.41,293.192z"/>
					</g>
				</g>
				<g>
					<g>
						<path style="fill:#455A64;" d="M416.452,292.874c0,0.144-5.012,0.26-11.194,0.26c-6.184,0-11.195-0.117-11.195-0.26
							c0-0.144,5.011-0.26,11.195-0.26C411.44,292.614,416.452,292.73,416.452,292.874z"/>
					</g>
				</g>
				<g>
					<g>
						<path style="fill:#263238;" d="M380.375,296.057c0,0.144-0.808,0.26-1.804,0.26c-0.996,0-1.804-0.117-1.804-0.26
							c0-0.144,0.807-0.26,1.804-0.26C379.567,295.797,380.375,295.914,380.375,296.057z"/>
					</g>
				</g>
				<g>
					<g>
						<path style="fill:#263238;" d="M385.893,295.951c0,0.144-0.974,0.26-2.175,0.26c-1.202,0-2.175-0.117-2.175-0.26
							c0-0.144,0.974-0.26,2.175-0.26C384.919,295.691,385.893,295.807,385.893,295.951z"/>
					</g>
				</g>
				<g>
					<g>
						<path style="fill:#455A64;" d="M402.34,295.739c0,0.144-3.159,0.26-7.056,0.26c-3.898,0-7.057-0.117-7.057-0.26
							c0-0.144,3.159-0.26,7.057-0.26C399.18,295.479,402.34,295.595,402.34,295.739z"/>
					</g>
				</g>
				<g>
					<g>
						<path style="fill:#455A64;" d="M393.639,300.726c0,0.144-3.825,0.26-8.541,0.26c-4.719,0-8.542-0.117-8.542-0.26
							s3.824-0.26,8.542-0.26C389.814,300.466,393.639,300.582,393.639,300.726z"/>
					</g>
				</g>
				<g>
					<g>
						<path style="fill:#E8505B;" d="M403.613,300.514c0,0.144-1.734,0.26-3.873,0.26c-2.139,0-3.873-0.117-3.873-0.26
							s1.734-0.26,3.873-0.26C401.879,300.254,403.613,300.37,403.613,300.514z"/>
					</g>
				</g>
				<g>
					<g>
						<path style="fill:#263238;" d="M418.415,300.514c0,0.144-2.874,0.26-6.419,0.26c-3.546,0-6.42-0.117-6.42-0.26
							s2.874-0.26,6.42-0.26C415.541,300.254,418.415,300.37,418.415,300.514z"/>
					</g>
				</g>
				<g>
					<g>
						<path style="fill:#263238;" d="M414.967,271.122c0,0.144-0.594,0.26-1.326,0.26c-0.733,0-1.326-0.117-1.326-0.26
							s0.594-0.26,1.326-0.26C414.373,270.861,414.967,270.978,414.967,271.122z"/>
					</g>
				</g>
				<g>
					<g>
						<path style="fill:#E8505B;" d="M387.909,269.318c0,0.144-1.306,0.26-2.918,0.26c-1.612,0-2.918-0.117-2.918-0.26
							c0-0.144,1.306-0.26,2.918-0.26C386.602,269.057,387.909,269.174,387.909,269.318z"/>
					</g>
				</g>
				<g>
					<path style="fill:#EBEBEB;" d="M432.211,267.318c-18.191,0-35.816,0-54.006,0l0.908-3.417h53.997L432.211,267.318z"/>
				</g>
				<g>
					<circle style="fill:#FAFAFA;" cx="381.387" cy="265.629" r="0.59"/>
				</g>
				<g>
					<circle style="fill:#FAFAFA;" cx="383.419" cy="265.629" r="0.59"/>
				</g>
				<g>
					<circle style="fill:#FAFAFA;" cx="385.451" cy="265.629" r="0.59"/>
				</g>
			</g>
			<g>
				<g>
					<g>
						<g>
							<rect x="369.982" y="320.567" style="fill:#263238;" width="128.035" height="74.71"/>
						</g>
						<g>
							<rect x="369.982" y="320.567" style="fill:#455A64;" width="58.327" height="74.71"/>
						</g>
						<g>
							<g>
								<g>
									<path style="fill:#263238;" d="M422.368,345.944c-0.007-0.007-0.013-0.137-0.02-0.385c-0.005-0.273-0.012-0.634-0.02-1.091
										c-0.011-0.981-0.027-2.373-0.047-4.15c-0.024-3.605-0.059-8.765-0.101-15.129l0.187,0.187
										c-12.128,0.019-28.68,0.045-46.918,0.073c-0.235,0.233,0.313-0.317,0.257-0.258v0.005v0.011v0.021v0.043v0.085v0.171
										l0,0.341v0.681l0,1.357c0,0.902,0,1.8-0.001,2.692c-0.001,1.784-0.002,3.547-0.002,5.283
										c-0.003,3.472-0.006,6.839-0.009,10.062l-0.248-0.248c13.591,0.048,25.282,0.089,33.611,0.118
										c4.147,0.029,7.455,0.052,9.761,0.068c1.12,0.013,1.995,0.024,2.623,0.031c0.281,0.006,0.506,0.011,0.684,0.015
										C422.281,345.934,422.363,345.939,422.368,345.944c0.005,0.005-0.066,0.01-0.212,0.015
										c-0.171,0.004-0.386,0.009-0.655,0.015c-0.615,0.008-1.473,0.018-2.571,0.031c-2.293,0.016-5.582,0.039-9.705,0.069
										c-8.37,0.029-20.119,0.07-33.778,0.118l-0.248,0.001l0-0.249c-0.003-3.224-0.006-6.59-0.009-10.062
										c-0.001-1.736-0.002-3.499-0.002-5.283c0-0.892,0-1.789-0.001-2.692l0-1.357v-0.681v-0.341v-0.171v-0.085v-0.043v-0.021
										v-0.011v-0.005c-0.057,0.054,0.494-0.495,0.264-0.263c18.238,0.028,34.79,0.054,46.918,0.073l0.189,0l-0.001,0.187
										c-0.042,6.411-0.077,11.611-0.101,15.242c-0.02,1.759-0.036,3.137-0.047,4.108c-0.009,0.443-0.015,0.792-0.02,1.057
										C422.381,345.833,422.374,345.95,422.368,345.944z"/>
								</g>
							</g>
							<g>
								<g>
									<path style="fill:#263238;" d="M400.903,335.567c-0.095,0.036-0.034-0.802-0.9-1.44c-0.414-0.298-1.071-0.452-1.694-0.209
										c-0.618,0.224-1.144,0.883-1.137,1.648c-0.007,0.765,0.519,1.425,1.137,1.649c0.623,0.243,1.28,0.089,1.694-0.209
										C400.869,336.369,400.808,335.531,400.903,335.567c0.029-0.001,0.083,0.179,0.036,0.512
										c-0.047,0.325-0.23,0.821-0.712,1.221c-0.465,0.4-1.274,0.648-2.081,0.367c-0.799-0.255-1.504-1.102-1.494-2.1
										c-0.01-0.997,0.696-1.845,1.494-2.1c0.806-0.281,1.616-0.033,2.081,0.367c0.482,0.4,0.666,0.895,0.712,1.221
										C400.986,335.388,400.932,335.568,400.903,335.567z"/>
								</g>
							</g>
						</g>
						<g>
							<g>
								<g>
									<path style="fill:#263238;" d="M422.368,368.789c-0.007-0.007-0.013-0.137-0.02-0.385c-0.005-0.273-0.012-0.634-0.02-1.091
										c-0.011-0.981-0.027-2.373-0.047-4.15c-0.024-3.605-0.059-8.765-0.101-15.128l0.187,0.187
										c-12.128,0.019-28.68,0.045-46.918,0.073c-0.235,0.233,0.313-0.317,0.257-0.258v0.005v0.011v0.021v0.043v0.085v0.171
										l0,0.341v0.681l0,1.357c0,0.902,0,1.8-0.001,2.692c-0.001,1.784-0.002,3.547-0.002,5.283
										c-0.003,3.472-0.006,6.839-0.009,10.062l-0.248-0.248c13.591,0.048,25.282,0.089,33.611,0.118
										c4.147,0.029,7.455,0.052,9.761,0.068c1.12,0.013,1.995,0.024,2.623,0.031c0.281,0.006,0.506,0.011,0.684,0.015
										C422.281,368.779,422.363,368.784,422.368,368.789c0.005,0.005-0.066,0.01-0.212,0.015
										c-0.171,0.004-0.386,0.009-0.655,0.015c-0.615,0.008-1.473,0.018-2.571,0.031c-2.293,0.016-5.582,0.039-9.705,0.069
										c-8.37,0.029-20.119,0.07-33.778,0.118l-0.248,0.001l0-0.249c-0.003-3.224-0.006-6.59-0.009-10.062
										c-0.001-1.736-0.002-3.499-0.002-5.283c0-0.892,0-1.79-0.001-2.692l0-1.357v-0.681v-0.341v-0.171v-0.085v-0.043v-0.021
										v-0.011v-0.005c-0.057,0.054,0.494-0.495,0.264-0.263c18.238,0.028,34.79,0.054,46.918,0.073l0.189,0l-0.001,0.187
										c-0.042,6.411-0.077,11.611-0.101,15.242c-0.02,1.759-0.036,3.137-0.047,4.108c-0.009,0.443-0.015,0.792-0.02,1.057
										C422.381,368.678,422.374,368.795,422.368,368.789z"/>
								</g>
							</g>
							<g>
								<g>
									<path style="fill:#263238;" d="M400.903,358.412c-0.095,0.036-0.034-0.802-0.9-1.44c-0.414-0.298-1.071-0.452-1.694-0.209
										c-0.618,0.224-1.144,0.883-1.137,1.648c-0.007,0.765,0.519,1.425,1.137,1.649c0.623,0.243,1.28,0.09,1.694-0.209
										C400.869,359.214,400.808,358.376,400.903,358.412c0.029-0.001,0.083,0.179,0.036,0.512
										c-0.047,0.325-0.23,0.821-0.712,1.221c-0.465,0.4-1.274,0.648-2.081,0.367c-0.799-0.255-1.504-1.102-1.494-2.1
										c-0.01-0.997,0.696-1.845,1.494-2.099c0.806-0.281,1.616-0.033,2.081,0.367c0.482,0.4,0.666,0.895,0.712,1.221
										C400.986,358.233,400.932,358.413,400.903,358.412z"/>
								</g>
							</g>
						</g>
						<g>
							<g>
								<g>
									<path style="fill:#263238;" d="M422.368,391.634c-0.007-0.007-0.013-0.137-0.02-0.385c-0.005-0.273-0.012-0.634-0.02-1.091
										c-0.011-0.981-0.027-2.373-0.047-4.15c-0.024-3.604-0.059-8.765-0.101-15.128l0.187,0.187
										c-12.128,0.019-28.68,0.045-46.918,0.073c-0.235,0.233,0.313-0.317,0.257-0.258v0.005v0.011v0.021v0.043v0.085v0.171
										l0,0.341v0.681l0,1.357c0,0.902,0,1.8-0.001,2.692c-0.001,1.784-0.002,3.547-0.002,5.283
										c-0.003,3.472-0.006,6.839-0.009,10.062l-0.248-0.248c13.591,0.048,25.282,0.089,33.611,0.118
										c4.147,0.029,7.455,0.052,9.761,0.068c1.12,0.013,1.995,0.024,2.623,0.031c0.281,0.006,0.506,0.011,0.684,0.015
										C422.281,391.624,422.363,391.629,422.368,391.634c0.005,0.005-0.066,0.01-0.212,0.015
										c-0.171,0.004-0.386,0.009-0.655,0.015c-0.615,0.007-1.473,0.018-2.571,0.031c-2.293,0.016-5.582,0.039-9.705,0.068
										c-8.37,0.029-20.119,0.07-33.778,0.118l-0.248,0.001l0-0.249c-0.003-3.224-0.006-6.59-0.009-10.062
										c-0.001-1.736-0.002-3.499-0.002-5.283c0-0.892,0-1.789-0.001-2.692l0-1.357v-0.681v-0.341v-0.171v-0.085v-0.043v-0.021
										v-0.011v-0.005c-0.057,0.054,0.494-0.495,0.264-0.263c18.238,0.028,34.79,0.054,46.918,0.073l0.189,0l-0.001,0.187
										c-0.042,6.411-0.077,11.611-0.101,15.242c-0.02,1.759-0.036,3.137-0.047,4.108c-0.009,0.443-0.015,0.792-0.02,1.057
										C422.381,391.523,422.374,391.641,422.368,391.634z"/>
								</g>
							</g>
							<g>
								<g>
									<path style="fill:#263238;" d="M400.903,381.257c-0.095,0.036-0.034-0.802-0.9-1.44c-0.414-0.298-1.071-0.452-1.694-0.209
										c-0.618,0.224-1.144,0.883-1.137,1.649c-0.007,0.765,0.519,1.425,1.137,1.649c0.623,0.243,1.28,0.089,1.694-0.209
										C400.869,382.059,400.808,381.221,400.903,381.257c0.029-0.001,0.083,0.179,0.036,0.512
										c-0.047,0.325-0.23,0.821-0.712,1.221c-0.465,0.4-1.274,0.648-2.081,0.367c-0.799-0.255-1.504-1.102-1.494-2.1
										c-0.01-0.997,0.696-1.845,1.494-2.099c0.806-0.281,1.616-0.033,2.081,0.367c0.482,0.4,0.666,0.896,0.712,1.221
										C400.986,381.078,400.932,381.258,400.903,381.257z"/>
								</g>
							</g>
						</g>
					</g>
					<g>
						<polygon style="fill:#263238;" points="284.712,456.086 199.138,456.025 199.138,320.567 284.712,320.567 						"/>
					</g>
					<g>
						<rect x="195.009" y="315.356" style="fill:#263238;" width="307.657" height="7.1"/>
					</g>
					<g>
						<rect x="199.138" y="322.455" style="fill:#263238;" width="9.54" height="143.703"/>
					</g>
					<g>
						<rect x="488.478" y="322.455" style="fill:#263238;" width="9.54" height="143.737"/>
					</g>
					<g>
						<rect x="428.309" y="322.455" style="fill:#263238;" width="9.54" height="143.737"/>
					</g>
				</g>
				<g>
					<g>
						<path style="fill:#455A64;" d="M238.274,315.356c0,0.144-9.17,0.26-20.48,0.26c-11.313,0-20.482-0.117-20.482-0.26
							s9.168-0.26,20.482-0.26C229.104,315.095,238.274,315.212,238.274,315.356z"/>
					</g>
				</g>
			</g>
			<g>
				<g>
					<g>
						<g>
							<g>
								<g>
									<g>
										<g>
											<path style="fill:#E8505B;" d="M328.225,459.163l0.244-10.277l-19.248-0.579l-0.516,15.032l1.191,0.113
												c5.302,0.455,26.993,1.938,30.576,0.969C344.469,463.338,328.225,459.163,328.225,459.163z"/>
										</g>
									</g>
								</g>
							</g>
							<g style="opacity:0.4;">
								<g>
									<g>
										<path style="fill:#FFFFFF;" d="M336.154,461.487c0,0,5.682,1.826,4.939,2.749c-0.743,0.922-22.719,0.248-32.387-0.898
											l0.044-0.429l25.626,1.006C334.376,463.914,335.031,461.501,336.154,461.487z"/>
									</g>
								</g>
							</g>
							<g>
								<g>
									<g>
										<g>
											<path style="fill:#263238;" d="M308.447,462.888c0,0.008,0.113,0.024,0.33,0.046c0.285,0.026,0.597,0.054,0.949,0.087
												c0.949,0.07,2.117,0.156,3.494,0.258c2.951,0.197,7.033,0.415,11.544,0.558c4.513,0.141,8.6,0.18,11.558,0.169
												c1.381-0.015,2.551-0.028,3.503-0.038c0.353-0.01,0.666-0.019,0.952-0.027c0.218-0.009,0.332-0.017,0.332-0.025
												c0-0.008-0.114-0.015-0.332-0.022c-0.286-0.005-0.599-0.011-0.952-0.017c-0.952-0.01-2.121-0.022-3.502-0.036
												c-2.957-0.031-7.041-0.096-11.551-0.237c-4.509-0.143-8.589-0.334-11.542-0.489c-1.379-0.073-2.547-0.134-3.497-0.184
												c-0.353-0.016-0.666-0.03-0.952-0.043C308.563,462.88,308.448,462.879,308.447,462.888z"/>
										</g>
									</g>
								</g>
							</g>
							<g>
								<g>
									<g>
										<g>
											<path style="fill:#263238;" d="M334.362,464.213c0.071,0.011,0.151-0.823,0.705-1.65
												c0.539-0.837,1.272-1.242,1.234-1.303c-0.012-0.058-0.848,0.279-1.429,1.175
												C334.28,463.324,334.303,464.225,334.362,464.213z"/>
										</g>
									</g>
								</g>
							</g>
							<g>
								<g>
									<g>
										<g>
											<path style="fill:#263238;" d="M328.771,461.158c0.053,0.036,0.335-0.286,0.629-0.72c0.294-0.434,0.49-0.815,0.436-0.851
												c-0.053-0.036-0.335,0.286-0.629,0.72C328.913,460.74,328.718,461.121,328.771,461.158z"/>
										</g>
									</g>
								</g>
							</g>
							<g>
								<g>
									<g>
										<g>
											<path style="fill:#263238;" d="M327.238,460.286c0.042,0.049,0.352-0.144,0.692-0.432
												c0.341-0.288,0.583-0.561,0.542-0.61c-0.042-0.049-0.352,0.144-0.693,0.432
												C327.439,459.963,327.196,460.236,327.238,460.286z"/>
										</g>
									</g>
								</g>
							</g>
							<g>
								<g>
									<g>
										<g>
											<path style="fill:#263238;" d="M326.308,458.439c-0.003,0.065,0.445,0.136,1,0.159c0.555,0.023,1.007-0.01,1.01-0.075
												c0.003-0.064-0.445-0.135-1-0.159C326.763,458.341,326.311,458.374,326.308,458.439z"/>
										</g>
									</g>
								</g>
							</g>
							<g>
								<g>
									<g>
										<g>
											<path style="fill:#263238;" d="M326.009,457.147c-0.023,0.057,0.46,0.293,1.111,0.36
												c0.651,0.071,1.173-0.058,1.162-0.119c-0.009-0.067-0.519-0.045-1.137-0.113
												C326.526,457.212,326.032,457.083,326.009,457.147z"/>
										</g>
									</g>
								</g>
							</g>
							<g>
								<g>
									<g>
										<g>
											<path style="fill:#263238;" d="M329.475,459.498c-0.002,0.026,0.471,0.099,1.237,0.03
												c0.382-0.034,0.836-0.111,1.326-0.25c0.244-0.079,0.498-0.135,0.763-0.287c0.125-0.078,0.264-0.189,0.318-0.375
												c0.057-0.184-0.036-0.395-0.172-0.5c-1.163-0.649-2.368-0.02-2.825,0.577c-0.251,0.305-0.371,0.605-0.429,0.813
												c-0.056,0.21-0.056,0.331-0.042,0.333c0.043,0.017,0.099-0.484,0.596-1.038c0.245-0.271,0.612-0.531,1.078-0.654
												c0.44-0.116,1.063-0.132,1.471,0.146c0.192,0.152,0.108,0.38-0.114,0.504c-0.208,0.125-0.473,0.197-0.704,0.276
												c-0.473,0.147-0.912,0.238-1.284,0.293C329.948,459.474,329.476,459.46,329.475,459.498z"/>
										</g>
									</g>
								</g>
							</g>
							<g>
								<g>
									<g>
										<g>
											<path style="fill:#263238;" d="M329.794,459.57c0.017,0.014,0.209-0.296,0.169-0.854
												c-0.022-0.274-0.112-0.601-0.31-0.914c-0.21-0.281-0.479-0.668-1.01-0.662c-0.288,0.028-0.438,0.35-0.399,0.559
												c0.016,0.217,0.108,0.406,0.193,0.559c0.174,0.315,0.375,0.571,0.561,0.766c0.376,0.391,0.678,0.545,0.693,0.522
												c0.022-0.029-0.24-0.229-0.569-0.632c-0.164-0.201-0.34-0.455-0.495-0.758c-0.162-0.267-0.264-0.74,0.048-0.786
												c0.31-0.02,0.617,0.297,0.799,0.55c0.186,0.274,0.285,0.565,0.325,0.815C329.878,459.242,329.753,459.559,329.794,459.57
												z"/>
										</g>
									</g>
								</g>
							</g>
							<g>
								<g>
									<g>
										<g>
											<path style="fill:#263238;" d="M309.002,457.633c0.003,0.043,0.553-0.036,1.42,0.094
												c0.859,0.122,2.046,0.513,3.063,1.374c1.016,0.863,1.594,1.972,1.855,2.799c0.269,0.834,0.28,1.39,0.324,1.385
												c0.014,0,0.025-0.139,0.012-0.388c-0.012-0.25-0.061-0.611-0.178-1.044c-0.226-0.862-0.802-2.03-1.862-2.93
												c-1.06-0.898-2.306-1.277-3.193-1.36c-0.447-0.045-0.811-0.034-1.059-0.005C309.135,457.586,309,457.619,309.002,457.633
												z"/>
										</g>
									</g>
								</g>
							</g>
							<g>
								<g>
									<g>
										<g>
											<path style="fill:#263238;" d="M311.243,449.685c-0.064-0.003-0.194,1.765-0.288,3.948
												c-0.095,2.184-0.12,3.956-0.055,3.959c0.064,0.003,0.193-1.765,0.288-3.949
												C311.283,451.46,311.307,449.688,311.243,449.685z"/>
										</g>
									</g>
								</g>
							</g>
							<g>
								<g>
									<g>
										<g>
											<path style="fill:#263238;" d="M318.169,461.595c-0.01,0.06,1.238,0.304,2.801,0.365
												c1.564,0.065,2.827-0.078,2.822-0.139c-0.004-0.068-1.263-0.029-2.812-0.094
												C319.43,461.667,318.178,461.527,318.169,461.595z"/>
										</g>
									</g>
								</g>
							</g>
							<g>
								<g>
									<g>
										<g>
											<path style="fill:#263238;" d="M314.397,461.473c-0.048,0.046,0.095,0.27,0.214,0.562
												c0.124,0.291,0.182,0.55,0.248,0.548c0.062,0.002,0.109-0.301-0.033-0.638
												C314.687,461.608,314.439,461.428,314.397,461.473z"/>
										</g>
									</g>
								</g>
							</g>
							<g>
								<g>
									<g>
										<g>
											<path style="fill:#263238;" d="M313.029,459.66c-0.047,0.044,0.071,0.248,0.264,0.456
												c0.193,0.208,0.388,0.341,0.435,0.297c0.047-0.044-0.071-0.248-0.264-0.456
												C313.271,459.75,313.076,459.616,313.029,459.66z"/>
										</g>
									</g>
								</g>
							</g>
							<g>
								<g>
									<g>
										<g>
											<path style="fill:#263238;" d="M311.02,458.789c0.011,0.066,0.267,0.071,0.547,0.18c0.282,0.102,0.479,0.265,0.531,0.223
												c0.053-0.034-0.101-0.313-0.449-0.441C311.301,458.619,311.002,458.729,311.02,458.789z"/>
										</g>
									</g>
								</g>
							</g>
							<g>
								<g>
									<g>
										<g>
											<path style="fill:#263238;" d="M309.583,458.363c-0.025,0.059,0.082,0.161,0.24,0.228
												c0.158,0.067,0.306,0.073,0.331,0.014c0.025-0.059-0.082-0.161-0.24-0.228
												C309.757,458.31,309.608,458.304,309.583,458.363z"/>
										</g>
									</g>
								</g>
							</g>
						</g>
					</g>
					<g style="opacity:0.3;">
						<polygon points="309.044,457.118 328.282,457.389 328.322,455.07 308.928,455.895 						"/>
					</g>
				</g>
				<g>
					<g>
						<g>
							<g>
								<g>
									<g>
										<g>
											<path style="fill:#E8505B;" d="M358.588,460.76l-0.028-10.28l-19.257-0.07l-0.118,15.04l1.194,0.081
												c5.313,0.314,27.035,1.224,30.591,0.161C374.936,464.504,358.588,460.76,358.588,460.76z"/>
										</g>
									</g>
								</g>
							</g>
							<g style="opacity:0.4;">
								<g>
									<g>
										<path style="fill:#FFFFFF;" d="M366.575,462.874c0,0,5.728,1.675,5.009,2.617c-0.719,0.942-22.705,0.848-32.399-0.042
											l0.033-0.43l25.644,0.328C364.862,465.347,365.453,462.917,366.575,462.874z"/>
									</g>
								</g>
							</g>
							<g>
								<g>
									<g>
										<g>
											<path style="fill:#263238;" d="M338.915,465.006c0,0.008,0.114,0.021,0.331,0.037c0.285,0.018,0.598,0.039,0.951,0.061
												c0.951,0.045,2.12,0.1,3.499,0.166c2.955,0.119,7.041,0.229,11.555,0.252c4.515,0.022,8.602-0.047,11.558-0.136
												c1.38-0.051,2.549-0.095,3.501-0.13c0.353-0.019,0.665-0.036,0.951-0.052c0.217-0.014,0.331-0.026,0.331-0.034
												c0-0.008-0.115-0.012-0.332-0.013c-0.286,0.002-0.599,0.005-0.952,0.008c-0.952,0.015-2.121,0.034-3.501,0.056
												c-2.957,0.047-7.041,0.09-11.554,0.068c-4.511-0.023-8.595-0.107-11.551-0.184c-1.38-0.036-2.55-0.067-3.501-0.092
												c-0.353-0.007-0.666-0.012-0.952-0.017C339.03,464.995,338.916,464.998,338.915,465.006z"/>
										</g>
									</g>
								</g>
							</g>
							<g>
								<g>
									<g>
										<g>
											<path style="fill:#263238;" d="M364.855,465.646c0.071,0.009,0.13-0.826,0.661-1.668
												c0.517-0.851,1.239-1.275,1.199-1.335c-0.014-0.058-0.84,0.301-1.397,1.212
												C364.751,464.759,364.797,465.66,364.855,465.646z"/>
										</g>
									</g>
								</g>
							</g>
							<g>
								<g>
									<g>
										<g>
											<path style="fill:#263238;" d="M359.186,462.739c0.054,0.035,0.328-0.295,0.61-0.736
												c0.283-0.441,0.468-0.827,0.414-0.862c-0.054-0.035-0.327,0.295-0.61,0.736
												C359.317,462.319,359.132,462.705,359.186,462.739z"/>
										</g>
									</g>
								</g>
							</g>
							<g>
								<g>
									<g>
										<g>
											<path style="fill:#263238;" d="M357.63,461.908c0.043,0.048,0.348-0.153,0.681-0.45c0.333-0.297,0.568-0.576,0.526-0.624
												c-0.043-0.048-0.348,0.153-0.681,0.45C357.823,461.581,357.587,461.86,357.63,461.908z"/>
										</g>
									</g>
								</g>
							</g>
							<g>
								<g>
									<g>
										<g>
											<path style="fill:#263238;" d="M356.652,460.087c-0.001,0.065,0.449,0.124,1.004,0.132
												c0.556,0.009,1.007-0.037,1.008-0.101c0.001-0.064-0.448-0.123-1.004-0.132
												C357.104,459.977,356.653,460.022,356.652,460.087z"/>
										</g>
									</g>
								</g>
							</g>
							<g>
								<g>
									<g>
										<g>
											<path style="fill:#263238;" d="M356.319,458.803c-0.022,0.057,0.467,0.281,1.12,0.331
												c0.653,0.054,1.171-0.089,1.158-0.15c-0.01-0.066-0.52-0.031-1.14-0.083C356.838,458.855,356.34,458.739,356.319,458.803
												z"/>
										</g>
									</g>
								</g>
							</g>
							<g>
								<g>
									<g>
										<g>
											<path style="fill:#263238;" d="M359.846,461.062c-0.001,0.026,0.473,0.086,1.238-0.002
												c0.381-0.044,0.832-0.133,1.318-0.285c0.242-0.085,0.494-0.148,0.755-0.307c0.123-0.081,0.259-0.195,0.308-0.383
												c0.052-0.185-0.046-0.394-0.185-0.495c-1.18-0.618-2.367,0.042-2.809,0.652c-0.243,0.311-0.355,0.615-0.407,0.824
												c-0.05,0.212-0.047,0.332-0.033,0.334c0.044,0.016,0.086-0.487,0.568-1.053c0.238-0.278,0.598-0.547,1.06-0.682
												c0.437-0.128,1.06-0.16,1.474,0.107c0.196,0.147,0.118,0.377-0.101,0.507c-0.204,0.131-0.468,0.209-0.697,0.294
												c-0.469,0.159-0.905,0.262-1.276,0.326C360.318,461.025,359.846,461.024,359.846,461.062z"/>
										</g>
									</g>
								</g>
							</g>
							<g>
								<g>
									<g>
										<g>
											<path style="fill:#263238;" d="M360.167,461.125c0.018,0.014,0.202-0.302,0.146-0.858
												c-0.029-0.273-0.128-0.598-0.334-0.905c-0.217-0.275-0.497-0.655-1.027-0.635c-0.287,0.036-0.428,0.361-0.384,0.57
												c0.022,0.217,0.118,0.404,0.208,0.554c0.183,0.31,0.39,0.561,0.581,0.751c0.387,0.381,0.692,0.527,0.706,0.504
												c0.022-0.03-0.246-0.223-0.585-0.616c-0.169-0.197-0.352-0.446-0.515-0.745c-0.169-0.262-0.283-0.732,0.027-0.787
												c0.31-0.029,0.625,0.281,0.813,0.529c0.193,0.269,0.3,0.557,0.346,0.806
												C360.242,460.795,360.125,461.116,360.167,461.125z"/>
										</g>
									</g>
								</g>
							</g>
							<g>
								<g>
									<g>
										<g>
											<path style="fill:#263238;" d="M339.331,459.739c0.004,0.043,0.552-0.05,1.422,0.056
												c0.862,0.099,2.059,0.458,3.099,1.292c1.038,0.836,1.646,1.929,1.928,2.749c0.29,0.827,0.316,1.382,0.36,1.376
												c0.014-0.001,0.022-0.139,0.002-0.388c-0.019-0.249-0.077-0.609-0.206-1.039c-0.249-0.855-0.856-2.008-1.939-2.88
												c-1.083-0.87-2.339-1.215-3.228-1.275c-0.448-0.033-0.812-0.013-1.059,0.023
												C339.462,459.688,339.329,459.725,339.331,459.739z"/>
										</g>
									</g>
								</g>
							</g>
							<g>
								<g>
									<g>
										<g>
											<path style="fill:#263238;" d="M341.361,451.734c-0.065-0.001-0.147,1.77-0.184,3.954
												c-0.037,2.186-0.015,3.958,0.05,3.959c0.064,0.001,0.147-1.769,0.184-3.955
												C341.447,453.508,341.425,451.735,341.361,451.734z"/>
										</g>
									</g>
								</g>
							</g>
							<g>
								<g>
									<g>
										<g>
											<path style="fill:#263238;" d="M348.599,463.457c-0.009,0.06,1.245,0.272,2.81,0.291
												c1.565,0.024,2.824-0.153,2.817-0.214c-0.006-0.068-1.264,0.004-2.814-0.02
												C349.862,463.495,348.607,463.389,348.599,463.457z"/>
										</g>
									</g>
								</g>
							</g>
							<g>
								<g>
									<g>
										<g>
											<path style="fill:#263238;" d="M344.825,463.435c-0.047,0.047,0.102,0.267,0.229,0.556
												c0.131,0.288,0.196,0.545,0.263,0.541c0.062,0,0.101-0.304-0.049-0.637C345.119,463.562,344.867,463.388,344.825,463.435
												z"/>
										</g>
									</g>
								</g>
							</g>
							<g>
								<g>
									<g>
										<g>
											<path style="fill:#263238;" d="M343.41,461.659c-0.046,0.045,0.077,0.246,0.276,0.449
												c0.198,0.203,0.396,0.331,0.443,0.286c0.046-0.045-0.077-0.246-0.276-0.449
												C343.654,461.742,343.456,461.614,343.41,461.659z"/>
										</g>
									</g>
								</g>
							</g>
							<g>
								<g>
									<g>
										<g>
											<path style="fill:#263238;" d="M341.378,460.841c0.013,0.066,0.269,0.064,0.552,0.165
												c0.285,0.094,0.486,0.252,0.536,0.209c0.052-0.035-0.109-0.31-0.46-0.429
												C341.655,460.664,341.359,460.782,341.378,460.841z"/>
										</g>
									</g>
								</g>
							</g>
							<g>
								<g>
									<g>
										<g>
											<path style="fill:#263238;" d="M339.931,460.453c-0.023,0.06,0.087,0.159,0.246,0.222
												c0.159,0.063,0.308,0.065,0.332,0.005c0.023-0.06-0.087-0.159-0.246-0.222
												C340.103,460.396,339.955,460.394,339.931,460.453z"/>
										</g>
									</g>
								</g>
							</g>
						</g>
					</g>
					<g style="opacity:0.3;">
						<polygon points="339.359,459.223 358.597,458.985 358.577,456.666 339.211,458.003 						"/>
					</g>
				</g>
				<g>
					<g>
						<path style="fill:#FFBE9D;" d="M316.07,284.792l7.711,23.22c2.082,6.271,7.561,7.344,14.169,7.344h42.893v-9.623
							l-39.187-5.595l-9.338-23.857L316.07,284.792z"/>
					</g>
					<g>
						<g>
							<path style="fill:#FFBE9D;" d="M385.557,303.734l3.403-1.611c0,0,3.667-7.09,4.512-6.806
								c0.845,0.284,1.088,2.371-0.385,5.628l4.522-1.292c0,0,9.802,4.529,9.368,5.139c-0.434,0.61-1.236,2.055-3.372,0.963
								c-2.135-1.092-4.932-2.373-4.932-2.373l-5.282,1.509l6.81,0.864l6.405,5.828c0,0-2.103,1.573-3.917-0.097l-16.637,3.574
								l-5.211,0.295v-9.623L385.557,303.734z"/>
						</g>
						<g>
							<g>
								<path style="fill:#EB996E;" d="M402.69,311.487c-0.071,0.047-0.38-0.445-0.98-1.099c-0.302-0.32-0.708-0.655-1.211-0.936
									c-0.484-0.27-1.113-0.388-1.797-0.469c-2.772-0.329-5.01-0.709-4.992-0.852c0.018-0.142,2.278,0.006,5.057,0.335
									c0.697,0.084,1.405,0.222,1.973,0.571c0.542,0.333,0.961,0.734,1.25,1.112C402.555,310.911,402.739,311.457,402.69,311.487z
									"/>
							</g>
						</g>
						<g>
							<g>
								<path style="fill:#EB996E;" d="M400.087,312.155c-0.063,0-0.115-0.344-0.582-0.444c-0.475-0.086-1.233-0.176-2.021-0.258
									c-1.598-0.162-2.912-0.15-2.925-0.298c-0.017-0.138,1.32-0.387,2.976-0.221c0.832,0.089,1.541,0.223,2.094,0.429
									c0.285,0.117,0.469,0.35,0.505,0.523C400.177,312.066,400.118,312.16,400.087,312.155z"/>
							</g>
						</g>
					</g>
				</g>
				<g>
					<g>
						<g>
							<g>
								<g>
									<g>
										<g>
											<path style="fill:#FFBE9D;" d="M279.86,189.322l-2.329,47.176l20.198,1.903l1.116-11.449c0,0,7.124,1.76,9.288-4.831
												c1.382-4.211,2.612-37.188,2.612-37.188L279.86,189.322z"/>
										</g>
									</g>
									<g>
										<g>
											<path style="fill:#263238;" d="M312.49,190.441c0.559,4.415-5.614,6.971-5.614,6.971l-1.079,10.444
												c-0.856-0.137-2.902-0.025-2.902-0.025c0.52-4.9-5.791-3.944-6.434-0.602c-0.618,3.214,3.042,5.358,3.042,5.358
												c-2.526,3.876-3.55,5.921-7.135,9.553c-3.88,3.931-5.966,4.249-9.971,4.131l-4.413-0.204c0,0-1.571-3.77-2.723-12.675
												c-0.554-4.284-3.898-9.896-2.946-16.861c2.705-19.791,21.668-17.7,21.668-17.7
												C303.821,179.104,311.193,180.196,312.49,190.441z"/>
										</g>
									</g>
								</g>
							</g>
						</g>
						<g>
							<path style="fill:#263238;" d="M297.956,179.401c4.284,0.111,8.723,0.448,12.484,2.503c3.761,2.054,6.66,6.274,5.887,10.49
								c-0.713,0.128-1.425,0.257-2.138,0.385c-0.294-0.526-0.589-1.053-0.883-1.579c0.008,0.841,0.017,1.682,0.025,2.522
								c-1.255,0.35-2.511,0.701-3.766,1.051c-0.557-3.202-1.692-6.304-3.333-9.11"/>
						</g>
					</g>
					<g>
						<g>
							<path style="fill:#455A64;" d="M280.665,201.111c-0.031,0.011-0.16-0.249-0.335-0.741c-0.176-0.492-0.381-1.223-0.54-2.147
								c-0.325-1.837-0.368-4.505,0.484-7.263c0.85-2.759,2.389-4.941,3.693-6.275c0.652-0.674,1.233-1.162,1.655-1.469
								c0.422-0.308,0.674-0.45,0.694-0.424c0.056,0.071-0.87,0.759-2.078,2.141c-1.207,1.369-2.645,3.511-3.467,6.18
								c-0.823,2.667-0.843,5.247-0.617,7.058C280.374,199.994,280.751,201.084,280.665,201.111z"/>
						</g>
					</g>
					<g>
						<g>
							<path style="fill:#455A64;" d="M284.642,199.459c-0.054,0.019-0.448-0.878-0.797-2.419c-0.351-1.536-0.596-3.731-0.389-6.141
								c0.214-2.41,0.836-4.529,1.448-5.982c0.611-1.457,1.154-2.273,1.204-2.244c0.168,0.061-1.748,3.525-2.133,8.271
								C283.531,195.684,284.817,199.428,284.642,199.459z"/>
						</g>
					</g>
					<g>
						<g>
							<path style="fill:#455A64;" d="M310.428,192.144c-0.095,0.021-0.269-1.22-1.088-3.02c-0.799-1.787-2.377-4.122-4.866-5.81
								c-2.492-1.684-5.247-2.282-7.203-2.359c-1.975-0.091-3.191,0.208-3.208,0.112c-0.007-0.031,0.287-0.136,0.839-0.254
								c0.551-0.119,1.365-0.226,2.378-0.227c2.009-0.016,4.889,0.541,7.485,2.296c2.593,1.758,4.181,4.224,4.912,6.095
								c0.375,0.941,0.579,1.737,0.673,2.293C310.447,191.827,310.459,192.139,310.428,192.144z"/>
						</g>
					</g>
					<g>
						<g>
							<path style="fill:#263238;" d="M281.289,175.584c0.035-0.128,1.556,0.347,2.901,1.712c1.358,1.353,1.825,2.876,1.697,2.91
								c-0.142,0.065-0.791-1.278-2.066-2.543C282.563,176.382,281.224,175.725,281.289,175.584z"/>
						</g>
					</g>
					<g>
						<g>
							<path style="fill:#455A64;" d="M286.014,175.603c0.144,0.052-0.159,1.103-0.101,2.414c0.04,1.312,0.42,2.337,0.281,2.4
								c-0.115,0.071-0.753-0.944-0.801-2.38C285.333,176.601,285.893,175.54,286.014,175.603z"/>
						</g>
					</g>
				</g>
				<g>
					<g>
						<g>
							<g>
								<g>
									<g>
										<g>
											<path style="fill:#E8505B;" d="M312.435,279.73l3.299,11.175l20.935-9.478c-0.752-2.339-4.215-12.761-10.843-29.298
												c-3.693-9.214-11.909-15.864-21.701-17.492c-6.851-1.14-14.305-2.029-20.046-1.966
												c-11.739,0.13-29.022,7.467-31.344,18.976c-1.773,8.785-0.063,24.293-0.063,43.137l1.532,36.005l60.159,2.04
												L312.435,279.73z"/>
										</g>
									</g>
								</g>
							</g>
						</g>
						<g style="opacity:0.3;">
							<g>
								<path d="M252.735,286.451c7.321,1.497,14.837-0.012,22.296-0.455c4.523-0.268,9.54-0.757,13.117,2.023
									c2.837,2.204,3.978,5.91,4.797,9.408c3.12,13.332,3.688,22.27,4.389,35.945l-36.212,2.196L252.735,286.451z"/>
							</g>
						</g>
					</g>
					<g>
						<g>
							<path style="fill:#FAFAFA;" d="M324.065,248.682c0,0.144-15.794,0.26-35.273,0.26c-19.486,0-35.277-0.117-35.277-0.26
								c0-0.144,15.791-0.26,35.277-0.26C308.271,248.422,324.065,248.539,324.065,248.682z"/>
						</g>
					</g>
					<g>
						<g>
							<path style="fill:#FAFAFA;" d="M328.456,258.789c0,0.144-17.171,0.26-38.348,0.26c-21.185,0-38.352-0.117-38.352-0.26
								c0-0.144,17.168-0.26,38.352-0.26C311.284,258.529,328.456,258.645,328.456,258.789z"/>
						</g>
					</g>
					<g>
						<g>
							<path style="fill:#FAFAFA;" d="M333.974,271.472c0,0.144-18.323,0.26-40.921,0.26c-22.605,0-40.925-0.117-40.925-0.26
								c0-0.144,18.319-0.26,40.925-0.26C315.651,271.212,333.974,271.328,333.974,271.472z"/>
						</g>
					</g>
					<g>
						<g>
							<path style="fill:#FAFAFA;" d="M311.977,285.146c0,0.144-5.723,0.26-12.781,0.26c-7.061,0-12.783-0.117-12.783-0.26
								s5.722-0.26,12.783-0.26C306.253,284.886,311.977,285.002,311.977,285.146z"/>
						</g>
					</g>
					<g>
						<g>
							<path style="fill:#FAFAFA;" d="M313.168,299.971c-0.001,0.144-5.992,0.212-13.379,0.152
								c-7.39-0.06-13.377-0.225-13.376-0.369c0.001-0.144,5.991-0.212,13.38-0.152C307.18,299.662,313.169,299.827,313.168,299.971
								z"/>
						</g>
					</g>
					<g>
						<g>
							<path style="fill:#FAFAFA;" d="M313.751,312.054c-0.002,0.036-0.378,0.05-1.055,0.044c-0.792-0.015-1.748-0.033-2.867-0.054
								c-2.419-0.055-5.76-0.121-9.451-0.123c-3.692-0.001-7.033,0.061-9.453,0.113c-1.119,0.02-2.074,0.037-2.867,0.051
								c-0.677,0.005-1.053-0.009-1.055-0.045c-0.002-0.036,0.37-0.09,1.045-0.158c0.675-0.069,1.653-0.143,2.862-0.216
								c2.419-0.147,5.768-0.267,9.468-0.266c3.699,0.003,7.047,0.127,9.466,0.276c1.21,0.074,2.188,0.15,2.862,0.219
								C313.381,311.964,313.753,312.018,313.751,312.054z"/>
						</g>
					</g>
					<g>
						<g>
							<path style="fill:#FAFAFA;" d="M313.562,321.808c0,0.144-5.901,0.26-13.178,0.26c-7.28,0-13.179-0.117-13.179-0.26
								s5.899-0.26,13.179-0.26C307.661,321.548,313.562,321.664,313.562,321.808z"/>
						</g>
					</g>
					<g>
						<g>
							<path style="fill:#FAFAFA;" d="M315.346,238.774c0,0.144-11.579,0.26-25.86,0.26c-14.286,0-25.863-0.117-25.863-0.26
								s11.577-0.26,25.863-0.26C303.766,238.513,315.346,238.63,315.346,238.774z"/>
						</g>
					</g>
					<g>
						<g>
							<path style="fill:#263238;" d="M313.978,240.652c0.008,0.053-0.602,0.089-1.6,0.481c-0.982,0.403-2.333,1.261-3.465,2.805
								c-1.148,1.526-1.921,3.738-2.07,6.268c-0.176,2.53,0.198,5.333,0.633,8.247c0.929,5.833,2.348,11.007,3.361,14.747
								c0.496,1.806,0.906,3.299,1.216,4.43c0.281,1.048,0.421,1.633,0.386,1.643c-0.034,0.01-0.24-0.555-0.58-1.585
								c-0.34-1.031-0.816-2.527-1.376-4.387c-1.105-3.718-2.586-8.895-3.522-14.767c-0.436-2.93-0.803-5.761-0.597-8.363
								c0.176-2.593,1.022-4.9,2.255-6.455c1.214-1.575,2.653-2.418,3.688-2.773c0.524-0.171,0.945-0.253,1.232-0.281
								C313.826,240.638,313.977,240.634,313.978,240.652z"/>
						</g>
					</g>
					<g>
						<g>
							<path style="fill:#263238;" d="M336.015,278.575c0.032,0.062-1.09,0.718-2.949,1.691c-1.859,0.974-4.461,2.257-7.381,3.574
								c-2.921,1.317-5.605,2.418-7.566,3.166c-1.961,0.749-3.195,1.155-3.22,1.091c-0.027-0.069,1.159-0.597,3.081-1.432
								c1.922-0.835,4.577-1.987,7.491-3.3c2.913-1.314,5.533-2.541,7.431-3.429C334.801,279.048,335.981,278.509,336.015,278.575z"
								/>
						</g>
					</g>
				</g>
				<g>
					<g>
						<path style="fill:#263238;" d="M272.807,331.357l71.879,2.544c11.668,0.413,20.861,10.087,20.679,21.761l-2.984,102.662
							l-27.767-0.925l2.061-96.115l-63.868-1.68V331.357z"/>
					</g>
					<g>
						<path style="fill:#263238;" d="M243.115,331.357l71.879,2.544c11.668,0.413,20.861,10.087,20.679,21.761l-2.984,102.662
							l-28.134-2.239l2.428-94.801l-63.868-1.68V331.357z"/>
					</g>
				</g>
				<g>
					<g>
						<g>
							<g>
								<rect x="289.839" y="368.654" style="fill:#455A64;" width="7.07" height="84.71"/>
							</g>
							<g>
								<g>
									<path style="fill:#455A64;" d="M230.514,286.429v62.359c0,8.178,6.63,14.808,14.808,14.808h41.524v-77.167
										c0-3.645-2.955-6.6-6.6-6.6h-43.133C233.469,279.829,230.514,282.784,230.514,286.429z"/>
								</g>
								<g>
									<path style="fill:#455A64;" d="M342.735,368.654H241.613l0,0c0-6.062,4.914-10.976,10.976-10.976h79.169
										C337.82,357.678,342.735,362.592,342.735,368.654L342.735,368.654z"/>
								</g>
							</g>
							<g>
								<g>
									<path style="fill:#263238;" d="M286.847,356.222c0.018,0,0.027,0.163,0.028,0.477c0.007,0.313-0.032,0.779-0.165,1.362
										c-0.246,1.151-0.98,2.864-2.71,4.202c-0.857,0.653-1.946,1.214-3.21,1.429c-1.28,0.215-2.599,0.111-3.995,0.15
										c-2.801,0.009-5.868,0.019-9.086,0.03c-6.448,0.007-12.285-0.016-16.509-0.059c-2.049-0.032-3.738-0.058-5.003-0.077
										c-0.54-0.019-0.988-0.034-1.36-0.047c-0.311-0.017-0.474-0.034-0.474-0.052c0-0.018,0.163-0.036,0.474-0.053
										c0.372-0.014,0.82-0.03,1.36-0.05c1.264-0.022,2.954-0.052,5.003-0.088c4.225-0.052,10.061-0.087,16.509-0.094
										c3.218,0.004,6.285,0.008,9.086,0.011c1.391-0.023,2.744,0.089,3.921-0.095c1.195-0.184,2.235-0.696,3.064-1.298
										c1.674-1.235,2.436-2.851,2.734-3.957C286.818,356.885,286.788,356.219,286.847,356.222z"/>
								</g>
							</g>
							<g>
								<g>
									<path style="fill:#263238;" d="M299.577,368.872c0,0.144-2.777,0.26-6.203,0.26c-3.427,0-6.203-0.117-6.203-0.26
										c0-0.144,2.777-0.26,6.203-0.26C296.799,368.611,299.577,368.728,299.577,368.872z"/>
								</g>
							</g>
						</g>
						<g>
							<g>
								<path style="fill:#455A64;" d="M330.344,364.141c-0.071,0.01-0.291-1.048-0.627-2.97c-0.336-1.922-0.789-4.707-1.327-8.152
									c-0.578-3.445-0.91-7.608-2.808-11.743c-0.953-2.055-2.205-4.087-3.757-5.998c-1.566-1.9-3.483-3.614-5.637-5.078
									c-2.158-1.462-4.477-2.587-6.834-3.294c-2.349-0.711-4.705-1.169-6.971-1.203c-4.577-0.106-8.753-0.086-12.232-0.151
									c-3.486-0.047-6.308-0.103-8.257-0.166c-1.95-0.062-3.028-0.131-3.028-0.203s1.078-0.14,3.028-0.203
									c1.95-0.062,4.771-0.118,8.257-0.165c3.493-0.029,7.623-0.126,12.263-0.071c2.349,0.01,4.799,0.461,7.244,1.188
									c2.453,0.722,4.869,1.885,7.112,3.404c2.24,1.522,4.227,3.31,5.843,5.293c1.601,1.993,2.883,4.115,3.846,6.256
									c0.23,0.539,0.421,1.087,0.629,1.619c0.101,0.267,0.202,0.532,0.301,0.796c0.076,0.271,0.151,0.541,0.226,0.808
									c0.148,0.535,0.295,1.062,0.439,1.581c0.096,0.53,0.19,1.051,0.283,1.564c0.358,2.047,0.542,3.93,0.784,5.662
									c0.444,3.458,0.786,6.26,0.999,8.199C330.331,363.053,330.415,364.131,330.344,364.141z"/>
							</g>
						</g>
					</g>
					<g>
						<path style="fill:#455A64;" d="M324.3,461.039h-1c0-16.589-13.496-30.085-30.084-30.085
							c-16.588,0-30.084,13.496-30.084,30.085h-1c0-17.141,13.944-31.085,31.084-31.085
							C310.356,429.954,324.3,443.899,324.3,461.039z"/>
					</g>
					<g>
						<path style="fill:#263238;" d="M267.292,462.583c0,2.574-2.087,4.661-4.661,4.661c-2.574,0-4.661-2.087-4.661-4.661
							c0-2.574,2.087-4.661,4.661-4.661C265.206,457.922,267.292,460.009,267.292,462.583z"/>
					</g>
					<g>
						<path style="fill:#263238;" d="M328.694,461.94c0,2.574-2.087,4.661-4.661,4.661c-2.574,0-4.661-2.087-4.661-4.661
							c0-2.574,2.087-4.661,4.661-4.661C326.607,457.28,328.694,459.366,328.694,461.94z"/>
					</g>
					<g>
						<g>
							<path style="fill:#455A64;" d="M324,453.365c0,0.144-13.526,0.26-30.208,0.26c-16.688,0-30.211-0.117-30.211-0.26
								s13.523-0.26,30.211-0.26C310.474,453.104,324,453.221,324,453.365z"/>
						</g>
					</g>
				</g>
			</g>
		</g>
	</g>
</g>
<g id="Plants">
	<g>
		<g>
			<g>
				<g>
					<path style="fill:#E8505B;" d="M220.797,258.765c1.508,0.875,2.505,2.48,2.901,4.178c0.396,1.698,0.241,3.485-0.155,5.183
						c-0.766,3.286-3.051,6.426-5.399,8.848c-2.518-2.775-2.664-7.119-2.6-9.327C215.645,264.157,217.948,257.91,220.797,258.765"/>
				</g>
			</g>
			<g>
				<g>
					<path style="fill:#E8505B;" d="M220.76,282.851c-0.229-1.934,0.795-3.907,2.39-5.026c1.595-1.118,3.677-1.427,5.589-1.054
						c0.884,0.172,1.818,0.545,2.242,1.339c0.397,0.742,0.232,1.694-0.242,2.39c-0.474,0.696-1.209,1.172-1.97,1.533
						C226.162,283.275,223.411,283.997,220.76,282.851"/>
				</g>
			</g>
			<g>
				<g>
					<g>
						<path style="fill:#263238;" d="M216.542,290.165c-0.042-0.016,0.17-0.837,0.634-2.138c0.232-0.652,0.606-1.408,1.11-2.171
							c0.506-0.758,1.046-1.603,1.747-2.408c1.382-1.62,3.05-2.695,4.357-3.175c0.653-0.246,1.208-0.357,1.59-0.418
							c0.386-0.044,0.6-0.049,0.603-0.025c0.011,0.068-0.844,0.156-2.092,0.69c-1.243,0.529-2.826,1.598-4.172,3.174
							c-0.677,0.775-1.225,1.613-1.742,2.352c-0.512,0.743-0.891,1.448-1.152,2.078
							C216.902,289.387,216.597,290.186,216.542,290.165z"/>
					</g>
				</g>
			</g>
			<g>
				<g>
					<g>
						<path style="fill:#263238;" d="M219.463,263.677c0.026,0.002,0.018,0.404-0.019,1.128c-0.036,0.725-0.104,1.772-0.198,3.066
							c-0.189,2.587-0.491,6.158-0.92,10.094c-0.431,3.937-0.921,7.489-1.329,10.052c-0.204,1.281-0.382,2.316-0.519,3.029
							c-0.135,0.713-0.223,1.105-0.248,1.101c-0.026-0.004,0.012-0.404,0.103-1.124c0.103-0.786,0.238-1.81,0.399-3.044
							c0.34-2.57,0.788-6.122,1.218-10.054c0.399-3.902,0.759-7.431,1.03-10.076c0.129-1.238,0.236-2.266,0.318-3.055
							C219.379,264.073,219.437,263.675,219.463,263.677z"/>
					</g>
				</g>
			</g>
			<g>
				<g>
					<path style="fill:#E8505B;" d="M216.379,283.637c-0.729-4.042-3.541-7.649-7.282-9.343c-0.953-0.431-2.191-0.7-2.951,0.018
						c-0.761,0.719-0.56,1.977-0.16,2.945c1.668,4.027,5.976,6.802,10.332,6.657"/>
				</g>
			</g>
			<g>
				<g>
					<g>
						<path style="fill:#263238;" d="M209.828,277.268c0.014-0.022,0.203,0.072,0.534,0.261c0.334,0.185,0.797,0.483,1.36,0.868
							c1.099,0.79,2.635,1.966,3.807,3.733c0.581,0.881,0.982,1.819,1.214,2.703c0.236,0.887,0.271,1.717,0.264,2.402
							c-0.031,0.686-0.096,1.238-0.189,1.61c-0.08,0.374-0.137,0.577-0.163,0.572c-0.075-0.012,0.099-0.841,0.084-2.182
							c-0.028-0.667-0.089-1.466-0.334-2.312c-0.241-0.845-0.633-1.736-1.193-2.585c-1.127-1.702-2.602-2.89-3.65-3.726
							C210.492,277.79,209.795,277.319,209.828,277.268z"/>
					</g>
				</g>
			</g>
		</g>
		<g>
			<g>
				<g>
					<path style="fill:#263238;" d="M216.055,315.356L216.055,315.356c-6.906,0-12.504-5.598-12.504-12.504v-12.504h25.008v12.504
						C228.559,309.758,222.96,315.356,216.055,315.356z"/>
				</g>
			</g>
			<g>
				<g>
					<g>
						<path style="fill:#E0E0E0;" d="M228.559,296.499c0.011,0.014-0.108,0.136-0.343,0.354c-0.283,0.253-0.625,0.559-1.035,0.926
							c-0.966,0.832-2.249,1.936-3.772,3.248l-0.092,0.079l-0.107-0.064c-2.096-1.26-4.578-2.753-7.248-4.358l-0.015-0.009
							l0.218-0.004c-2.473,1.603-4.781,3.098-6.743,4.37l-0.105,0.068l-0.096-0.075c-1.675-1.312-3.087-2.417-4.148-3.248
							c-0.454-0.369-0.832-0.677-1.142-0.929c-0.26-0.219-0.393-0.343-0.382-0.357c0.011-0.015,0.166,0.081,0.446,0.272
							c0.326,0.232,0.723,0.514,1.2,0.853c1.083,0.801,2.526,1.867,4.237,3.132l-0.201-0.007c1.953-1.287,4.249-2.8,6.71-4.422
							l0.108-0.071l0.111,0.067l0.015,0.009c2.656,1.627,5.127,3.139,7.212,4.416l-0.198,0.015c1.561-1.267,2.875-2.333,3.865-3.137
							c0.434-0.338,0.796-0.621,1.095-0.854C228.406,296.581,228.547,296.485,228.559,296.499z"/>
					</g>
				</g>
			</g>
			<g>
				<g>
					<g>
						<path style="fill:#E0E0E0;" d="M228.559,293.998c0.011,0.014-0.108,0.136-0.343,0.354c-0.283,0.253-0.625,0.559-1.035,0.926
							c-0.966,0.832-2.249,1.936-3.772,3.248l-0.092,0.079l-0.107-0.064c-2.096-1.26-4.578-2.753-7.248-4.358l-0.015-0.009
							l0.218-0.004c-2.473,1.603-4.781,3.098-6.743,4.37l-0.105,0.068l-0.096-0.075c-1.675-1.312-3.087-2.418-4.148-3.248
							c-0.454-0.369-0.832-0.677-1.142-0.929c-0.26-0.219-0.393-0.343-0.382-0.357c0.011-0.015,0.166,0.081,0.446,0.272
							c0.326,0.232,0.723,0.514,1.2,0.853c1.083,0.801,2.526,1.867,4.237,3.132l-0.201-0.007c1.953-1.287,4.249-2.801,6.71-4.422
							l0.108-0.071l0.111,0.067l0.015,0.009c2.656,1.627,5.127,3.139,7.212,4.416l-0.198,0.015c1.561-1.267,2.875-2.333,3.865-3.137
							c0.434-0.338,0.796-0.621,1.095-0.854C228.406,294.08,228.547,293.984,228.559,293.998z"/>
					</g>
				</g>
			</g>
			<g>
				<g>
					<g>
						<path style="fill:#E0E0E0;" d="M228.559,299.041c0.011,0.014-0.108,0.136-0.343,0.354c-0.283,0.253-0.625,0.559-1.035,0.926
							c-0.966,0.832-2.249,1.936-3.772,3.248l-0.092,0.079l-0.107-0.064c-2.096-1.26-4.578-2.753-7.248-4.358l-0.015-0.009
							l0.218-0.004c-2.473,1.603-4.781,3.098-6.743,4.37l-0.105,0.068l-0.096-0.075c-1.675-1.312-3.087-2.418-4.148-3.248
							c-0.454-0.369-0.832-0.677-1.142-0.929c-0.26-0.219-0.393-0.342-0.382-0.357c0.011-0.015,0.166,0.081,0.446,0.273
							c0.326,0.232,0.723,0.514,1.2,0.853c1.083,0.801,2.526,1.867,4.237,3.132l-0.201-0.007c1.953-1.287,4.249-2.8,6.71-4.422
							l0.108-0.071l0.111,0.067l0.015,0.009c2.656,1.627,5.127,3.139,7.212,4.416l-0.198,0.015c1.561-1.266,2.875-2.333,3.865-3.137
							c0.434-0.338,0.796-0.621,1.095-0.854C228.406,299.123,228.547,299.028,228.559,299.041z"/>
					</g>
				</g>
			</g>
		</g>
	</g>
	<g>
		<g>
			<g>
				<g>
					<g>
						<g>
							<path style="fill:#E8505B;" d="M552.561,344.722c-5.183,0.834-7.5,7.202-7.047,12.432c0.453,5.23,2.603,10.342,2.028,15.559
								c-0.73,6.626-5.737,12.226-6.32,18.867c-0.688,7.831,4.849,14.777,6.503,22.463c0.805,3.739,0.692,7.694,2.085,11.256
								c2.348,6.007,9.232,9.864,15.581,8.73c6.349-1.134,11.472-7.136,11.595-13.585c0.115-6.013-3.596-11.677-3.145-17.674
								c0.333-4.434,2.931-8.634,2.375-13.044c-0.662-5.247-5.525-8.974-7.241-13.978c-1.716-5.004-0.068-10.519-0.66-15.777
								C567.252,350.54,562.022,343.965,552.561,344.722"/>
						</g>
					</g>
				</g>
			</g>
			<g>
				<g>
					<g>
						<g>
							<path style="fill:#E8505B;" d="M526.096,390.39c-0.882,8.739,2.983,19.021,7.477,26.568
								c4.495,7.547,11.461,13.593,19.565,16.981c0.914,0.383,2.052,0.703,2.821,0.08c0.63-0.512,0.708-1.43,0.714-2.242
								c0.062-9.197-2.931-18.388-8.396-25.785C542.812,398.594,534.905,393.033,526.096,390.39"/>
						</g>
					</g>
				</g>
			</g>
			<g style="opacity:0.2;">
				<g>
					<g>
						<g>
							<path d="M526.096,390.39c-0.882,8.739,2.983,19.021,7.477,26.568c4.495,7.547,11.461,13.593,19.565,16.981
								c0.914,0.383,2.052,0.703,2.821,0.08c0.63-0.512,0.708-1.43,0.714-2.242c0.062-9.197-2.931-18.388-8.396-25.785
								C542.812,398.594,534.905,393.033,526.096,390.39"/>
						</g>
					</g>
				</g>
			</g>
			<g>
				<g>
					<g>
						<g>
							<g>
								<path style="fill:#263238;" d="M564.167,452.213c-0.016,0.006-0.101-0.162-0.249-0.487
									c-0.165-0.377-0.371-0.851-0.624-1.431c-0.525-1.248-1.31-3.045-2.31-5.25c-1.996-4.412-4.954-10.418-8.677-16.798
									c-3.732-6.378-7.515-11.903-10.379-15.807c-1.431-1.954-2.61-3.52-3.441-4.59c-0.381-0.505-0.692-0.917-0.941-1.246
									c-0.21-0.289-0.315-0.445-0.302-0.456c0.013-0.011,0.144,0.124,0.38,0.392c0.267,0.314,0.603,0.707,1.014,1.188
									c0.878,1.035,2.102,2.57,3.571,4.5c2.942,3.857,6.783,9.369,10.527,15.767c3.734,6.399,6.651,12.449,8.569,16.905
									c0.961,2.228,1.698,4.048,2.169,5.322c0.218,0.594,0.396,1.079,0.537,1.466
									C564.129,452.027,564.183,452.207,564.167,452.213z"/>
							</g>
						</g>
					</g>
				</g>
			</g>
			<g>
				<g>
					<g>
						<g>
							<g>
								<path style="fill:#263238;" d="M558.541,368.9c0.017-0.001,0.05,0.288,0.095,0.838c0.043,0.593,0.101,1.396,0.175,2.407
									c0.137,2.137,0.331,5.151,0.57,8.855c0.472,7.478,1.135,17.807,1.937,29.211c0.804,11.407,1.594,21.728,2.174,29.198
									c0.283,3.701,0.513,6.712,0.677,8.848c0.069,1.01,0.124,1.814,0.164,2.407c0.032,0.55,0.041,0.841,0.024,0.842
									c-0.017,0.001-0.059-0.286-0.123-0.834c-0.063-0.591-0.149-1.392-0.257-2.399c-0.202-2.134-0.485-5.14-0.834-8.836
									c-0.67-7.464-1.516-17.783-2.32-29.193c-0.802-11.406-1.41-21.741-1.792-29.226c-0.172-3.708-0.312-6.725-0.412-8.865
									c-0.034-1.013-0.061-1.817-0.082-2.411C558.522,369.192,558.524,368.901,558.541,368.9z"/>
							</g>
						</g>
					</g>
				</g>
			</g>
		</g>
		<g>
			<g>
				<g>
					<g>
						<path style="fill:#263238;" d="M550.502,439.75h21.887v16.068c0,5.803-4.704,10.506-10.506,10.506l0,0
							c-5.585,0-10.193-4.368-10.492-9.945L550.502,439.75z"/>
					</g>
				</g>
			</g>
		</g>
	</g>
</g>
<g id="Lamp">
	<g>
		<g>
			<g>
				<g>
					<g>
						<polyline style="fill:#E8505B;" points="439.638,227.894 491.84,256.795 489.876,260.482 438.142,231.031 439.638,227.894 
													"/>
					</g>
				</g>
			</g>
			<g>
				<g>
					<g>
						<polygon style="fill:#E8505B;" points="437.073,225.158 439.471,221.487 440.869,222.346 438.718,226.054 						"/>
					</g>
				</g>
			</g>
			<g>
				<g>
					<g>
						<polygon style="fill:#E8505B;" points="485.911,252.227 488.593,253.772 479.848,309.545 475.715,309.596 						"/>
					</g>
				</g>
			</g>
			<g>
				<g>
					<g>
						<path style="fill:#E8505B;" d="M463.685,315.356c0,0,6.363-6.44,14.89-5.966c8.527,0.474,12.899,5.934,12.899,5.934
							L463.685,315.356z"/>
					</g>
				</g>
			</g>
		</g>
		<g>
			<g>
				<path style="fill:#E8505B;" d="M437.12,250.445l-20.668-11.933l5.966-10.334c3.295-5.707,10.593-7.663,16.3-4.367l0,0
					c5.707,3.295,7.663,10.593,4.368,16.3L437.12,250.445z"/>
			</g>
		</g>
	</g>
</g>
</svg>
