<?xml version="1.0" encoding="utf-8"?>
<!-- Generator: Adobe Illustrator 27.5.0, SVG Export Plug-In . SVG Version: 6.00 Build 0)  -->
<svg version="1.1" xmlns="http://www.w3.org/2000/svg" xmlns:xlink="http://www.w3.org/1999/xlink" x="0px" y="0px"
	 viewBox="0 0 100 100" style="enable-background:new 0 0 500 500;" xml:space="preserve">
<!-- <g id="BACKGROUND">
	<rect style="fill:#FFFFFF;" width="500" height="500"/>
</g> -->
<g id="OBJECTS">
	<g>
		
		<g>
			<g>
				<path style="fill:#FFFFFF;stroke:#000000;stroke-width:4.4583;stroke-miterlimit:10;" d="M155.699,145.417
					c-18.005,0-32.6-14.596-32.6-32.6c0-18.005,14.596-32.6,32.6-32.6c13.919,0,25.793,8.726,30.469,21.003h25.144
					c-5.355-25.809-28.217-45.205-55.613-45.205c-31.371,0-56.802,25.431-56.802,56.802c0,31.371,25.431,56.802,56.802,56.802
					c27.396,0,50.259-19.396,55.613-45.205h-25.144C181.492,136.691,169.617,145.417,155.699,145.417z"/>
			</g>
			<path style="fill:none;stroke:#000000;stroke-width:4.4583;stroke-miterlimit:10;" d="M198.827,101.22
				c0,0-10.729-32.557-43.723-32.557c-32.994,0-62.003,33.227-46.679,75.65"/>
			<path style="fill:none;stroke:#000000;stroke-width:4.4583;stroke-miterlimit:10;" d="M126.925,97.485
				c-23.966,28.566-0.193,60.373,28.179,60.373c33.107,0,43.723-32.461,43.723-32.461"/>
		</g>
	</g>
</g>
</svg>
